# Blender 4.1.1
# www.blender.org
mtllib around berry.mtl
o Cylinder
v 0.000000 -0.383353 -1.632180
v 0.000000 0.383353 -1.632180
v 1.049145 -0.383353 -1.250323
v 1.049145 0.383353 -1.250323
v 1.607384 -0.383353 -0.283425
v 1.607384 0.383353 -0.283425
v 1.413510 -0.383353 0.816090
v 1.413510 0.383353 0.816090
v 0.558239 -0.383353 1.533748
v 0.558239 0.383353 1.533748
v -0.558239 -0.383353 1.533748
v -0.558239 0.383353 1.533748
v -1.413510 -0.383353 0.816090
v -1.413510 0.383353 0.816090
v -1.607384 -0.383353 -0.283425
v -1.607384 0.383353 -0.283425
v -1.049145 -0.383353 -1.250323
v -1.049145 0.383353 -1.250323
vn 0.3420 -0.0000 -0.9397
vn 0.8660 -0.0000 -0.5000
vn 0.9848 -0.0000 0.1736
vn 0.6428 -0.0000 0.7660
vn -0.0000 -0.0000 1.0000
vn -0.6428 -0.0000 0.7660
vn -0.9848 -0.0000 0.1736
vn -0.8660 -0.0000 -0.5000
vn -0.3420 -0.0000 -0.9397
vt 1.000000 0.000014
vt 1.000000 1.000000
vt 0.888889 1.000000
vt 0.888889 0.000014
vt 0.777778 1.000000
vt 0.777778 0.000014
vt 0.666667 1.000000
vt 0.666667 0.000014
vt 0.555556 1.000000
vt 0.555556 0.000014
vt 0.444444 1.000000
vt 0.444444 0.000014
vt 0.333333 1.000000
vt 0.333333 0.000014
vt 0.222222 1.000000
vt 0.222222 0.000014
vt 0.111111 1.000000
vt 0.111111 0.000014
vt 0.000000 1.000000
vt 0.000000 0.000014
s 0
f 1/1/1 2/2/1 4/3/1 3/4/1
f 3/4/2 4/3/2 6/5/2 5/6/2
f 5/6/3 6/5/3 8/7/3 7/8/3
f 7/8/4 8/7/4 10/9/4 9/10/4
f 9/10/5 10/9/5 12/11/5 11/12/5
f 11/12/6 12/11/6 14/13/6 13/14/6
f 13/14/7 14/13/7 16/15/7 15/16/7
f 15/16/8 16/15/8 18/17/8 17/18/8
f 17/18/9 18/17/9 2/19/9 1/20/9
