# Blender 4.1.1
# www.blender.org
mtllib ARTIK pickup.mtl
o Cube
v 0.014314 0.460863 -0.050986
v 0.014314 0.000012 -0.050986
v 0.014314 0.460863 0.050986
v 0.014314 0.000012 0.050986
v -0.014314 0.460863 -0.050986
v -0.014314 0.000012 -0.050986
v -0.014314 0.460863 0.050986
v -0.014314 0.000012 0.050986
v -0.014314 0.000012 0.000000
v 0.014314 0.460863 0.000000
v -0.014314 0.460863 0.000000
v 0.014314 0.000012 0.000000
v 0.039184 0.460863 0.203584
v -0.039184 0.460863 0.203584
v 0.039184 0.460863 -0.203584
v -0.039184 0.460863 -0.203584
v 0.056493 1.488711 0.000000
v 0.040597 1.504607 0.000000
v 0.051837 1.499951 0.000000
v -0.040597 1.504607 0.000000
v -0.056493 1.488711 0.000000
v -0.051837 1.499951 0.000000
v 0.056493 1.488711 0.026832
v 0.040597 1.504607 0.027873
v 0.051837 1.499951 0.027568
v 0.056493 1.312213 0.203329
v 0.040597 1.313254 0.219226
v 0.051837 1.312949 0.214570
v 0.056493 1.482599 0.073249
v 0.040597 1.498087 0.077399
v 0.051837 1.493551 0.076184
v 0.056493 1.465085 0.115533
v 0.040597 1.478971 0.123550
v 0.051837 1.474904 0.121202
v 0.056493 1.437224 0.151843
v 0.040597 1.448561 0.163180
v 0.051837 1.445240 0.159859
v 0.056493 1.400914 0.179704
v 0.040597 1.408931 0.193590
v 0.051837 1.406583 0.189523
v 0.056493 1.358630 0.197218
v 0.040597 1.362780 0.212706
v 0.051837 1.361565 0.208170
v -0.056493 1.312213 0.203329
v -0.040597 1.313254 0.219226
v -0.051837 1.312949 0.214570
v -0.056493 1.488711 0.026832
v -0.040597 1.504607 0.027873
v -0.051837 1.499951 0.027568
v -0.056493 1.358630 0.197218
v -0.040597 1.362780 0.212706
v -0.051837 1.361565 0.208170
v -0.056493 1.400914 0.179704
v -0.040597 1.408931 0.193590
v -0.051837 1.406583 0.189523
v -0.056493 1.437224 0.151843
v -0.040597 1.448561 0.163180
v -0.051837 1.445240 0.159859
v -0.056493 1.465085 0.115533
v -0.040597 1.478971 0.123550
v -0.051837 1.474904 0.121202
v -0.056493 1.482599 0.073249
v -0.040597 1.498087 0.077399
v -0.051837 1.493551 0.076184
v 0.056493 1.312213 -0.203329
v 0.040597 1.313254 -0.219226
v 0.051837 1.312949 -0.214570
v 0.056493 1.488711 -0.026832
v 0.040597 1.504607 -0.027873
v 0.051837 1.499951 -0.027568
v 0.056493 1.358630 -0.197218
v 0.040597 1.362780 -0.212706
v 0.051837 1.361565 -0.208170
v 0.056493 1.400914 -0.179704
v 0.040597 1.408931 -0.193590
v 0.051837 1.406583 -0.189523
v 0.056493 1.437224 -0.151843
v 0.040597 1.448561 -0.163180
v 0.051837 1.445240 -0.159859
v 0.056493 1.465085 -0.115533
v 0.040597 1.478971 -0.123550
v 0.051837 1.474904 -0.121202
v 0.056493 1.482599 -0.073249
v 0.040597 1.498087 -0.077399
v 0.051837 1.493551 -0.076184
v -0.056493 1.488711 -0.026832
v -0.040597 1.504607 -0.027873
v -0.051837 1.499951 -0.027568
v -0.056493 1.312213 -0.203329
v -0.040597 1.313254 -0.219226
v -0.051837 1.312949 -0.214570
v -0.056493 1.482599 -0.073249
v -0.040597 1.498087 -0.077399
v -0.051837 1.493551 -0.076184
v -0.056493 1.465085 -0.115533
v -0.040597 1.478971 -0.123550
v -0.051837 1.474904 -0.121202
v -0.056493 1.437224 -0.151843
v -0.040597 1.448561 -0.163180
v -0.051837 1.445240 -0.159859
v -0.056493 1.400914 -0.179704
v -0.040597 1.408931 -0.193590
v -0.051837 1.406583 -0.189523
v -0.056493 1.358630 -0.197218
v -0.040597 1.362780 -0.212706
v -0.051837 1.361565 -0.208170
v 0.049434 0.460863 0.000000
v 0.056493 0.467656 0.000000
v -0.056493 0.467656 0.000000
v -0.049434 0.460863 0.000000
v 0.049423 0.460863 0.203433
v 0.056493 0.467656 0.203329
v 0.040597 0.467656 0.219226
v 0.039966 0.460863 0.212243
v 0.051837 0.467656 0.214570
v 0.046964 0.460863 0.209340
v -0.039966 0.460863 0.212243
v -0.040597 0.467656 0.219226
v -0.056493 0.467656 0.203329
v -0.049423 0.460863 0.203433
v -0.051837 0.467656 0.214570
v -0.046964 0.460863 0.209340
v 0.039966 0.460863 -0.212243
v 0.040597 0.467656 -0.219226
v 0.056493 0.467656 -0.203329
v 0.049423 0.460863 -0.203433
v 0.051837 0.467656 -0.214570
v 0.046964 0.460863 -0.209340
v -0.049423 0.460863 -0.203433
v -0.056493 0.467656 -0.203329
v -0.040597 0.467656 -0.219226
v -0.039966 0.460863 -0.212243
v -0.051837 0.467656 -0.214570
v -0.046964 0.460863 -0.209340
v 0.014314 0.458057 -0.050986
v -0.014314 0.458057 0.050986
v 0.014314 0.458057 0.050986
v -0.014314 0.458057 -0.050986
v 0.014314 0.458057 0.000000
v -0.014314 0.458057 0.000000
v 0.014314 0.003089 -0.050986
v 0.014314 0.003089 0.050986
v -0.014314 0.003089 -0.050986
v 0.014314 0.003089 0.000000
v -0.014314 0.003089 0.000000
v -0.014314 0.003089 0.050986
v 0.000000 0.000012 -0.050986
v 0.000000 0.460863 0.050986
v 0.000000 0.000012 0.050986
v 0.000000 0.460863 -0.050986
v 0.000000 0.000012 0.000000
v 0.000000 1.313254 0.219226
v 0.000000 1.313254 -0.219226
v 0.000000 1.504607 0.000000
v 0.000000 1.504607 0.027873
v 0.000000 1.504607 -0.027873
v 0.000000 1.498087 0.077399
v 0.000000 1.362780 0.212706
v 0.000000 1.478971 0.123550
v 0.000000 1.448561 0.163180
v 0.000000 1.408931 0.193590
v 0.000000 1.362780 -0.212706
v 0.000000 1.498087 -0.077399
v 0.000000 1.408931 -0.193590
v 0.000000 1.448561 -0.163180
v 0.000000 1.478971 -0.123550
v 0.000000 0.460863 0.203584
v 0.000000 0.460863 -0.203584
v 0.000000 0.460863 0.212243
v 0.000000 0.467656 0.219226
v 0.000000 0.460863 -0.212243
v 0.000000 0.467656 -0.219226
v 0.000000 0.458057 -0.050986
v 0.000000 0.458057 0.050986
v 0.000000 0.003089 0.050986
v 0.000000 0.003089 -0.050986
vn 0.3015 -0.9045 -0.3015
vn 0.5774 -0.5774 -0.5774
vn 0.3015 -0.9045 0.3015
vn 0.5774 -0.5774 0.5774
vn -0.3015 -0.9045 -0.3015
vn -0.5774 -0.5774 -0.5774
vn -0.3015 -0.9045 0.3015
vn -0.5774 -0.5774 0.5774
vn -0.7071 -0.7071 -0.0000
vn 0.7071 -0.7071 -0.0000
vn -0.0000 -1.0000 -0.0000
vn 0.9808 0.1951 -0.0000
vn 0.1951 0.9808 -0.0000
vn 0.7071 0.7071 -0.0000
vn -0.1951 0.9808 -0.0000
vn -0.9808 0.1951 -0.0000
vn -0.7071 0.7071 -0.0000
vn 0.9793 0.2021 0.0132
vn 0.1939 0.9789 0.0642
vn 0.6998 0.7128 0.0467
vn 0.9793 0.0132 0.2021
vn 0.1939 0.0642 0.9789
vn 0.6998 0.0467 0.7128
vn 0.9779 0.2019 0.0541
vn 0.1935 0.9477 0.2539
vn 0.6937 0.6957 0.1864
vn 0.9779 0.1810 0.1045
vn 0.1935 0.8497 0.4905
vn 0.6937 0.6238 0.3601
vn 0.9779 0.1478 0.1478
vn 0.1935 0.6937 0.6937
vn 0.6937 0.5093 0.5093
vn 0.9779 0.1045 0.1810
vn 0.1935 0.4905 0.8497
vn 0.6937 0.3601 0.6238
vn 0.9779 0.0541 0.2019
vn 0.1935 0.2539 0.9477
vn 0.6937 0.1864 0.6957
vn -0.9793 0.0132 0.2021
vn -0.1939 0.0642 0.9789
vn -0.6998 0.0467 0.7128
vn -0.9793 0.2021 0.0132
vn -0.1939 0.9789 0.0642
vn -0.6998 0.7128 0.0467
vn -0.9779 0.0541 0.2019
vn -0.1935 0.2539 0.9477
vn -0.6937 0.1864 0.6957
vn -0.9779 0.1045 0.1810
vn -0.1935 0.4905 0.8497
vn -0.6937 0.3601 0.6238
vn -0.9779 0.1478 0.1478
vn -0.1935 0.6937 0.6937
vn -0.6937 0.5093 0.5093
vn -0.9779 0.1810 0.1045
vn -0.1935 0.8497 0.4905
vn -0.6937 0.6238 0.3601
vn -0.9779 0.2019 0.0541
vn -0.1935 0.9477 0.2539
vn -0.6937 0.6957 0.1864
vn 0.9793 0.0132 -0.2021
vn 0.1939 0.0642 -0.9789
vn 0.6998 0.0467 -0.7128
vn 0.9793 0.2021 -0.0132
vn 0.1939 0.9789 -0.0642
vn 0.6998 0.7128 -0.0467
vn 0.9779 0.0541 -0.2019
vn 0.1935 0.2539 -0.9477
vn 0.6937 0.1864 -0.6957
vn 0.9779 0.1045 -0.1810
vn 0.1935 0.4905 -0.8497
vn 0.6937 0.3601 -0.6238
vn 0.9779 0.1478 -0.1478
vn 0.1935 0.6937 -0.6937
vn 0.6937 0.5093 -0.5093
vn 0.9779 0.1810 -0.1045
vn 0.1935 0.8497 -0.4905
vn 0.6937 0.6238 -0.3601
vn 0.9779 0.2019 -0.0541
vn 0.1935 0.9477 -0.2539
vn 0.6937 0.6957 -0.1864
vn -0.9793 0.2021 -0.0132
vn -0.1939 0.9789 -0.0642
vn -0.6998 0.7128 -0.0467
vn -0.9793 0.0132 -0.2021
vn -0.1939 0.0642 -0.9789
vn -0.6998 0.0467 -0.7128
vn -0.9779 0.2019 -0.0541
vn -0.1935 0.9477 -0.2539
vn -0.6937 0.6957 -0.1864
vn -0.9779 0.1810 -0.1045
vn -0.1935 0.8497 -0.4905
vn -0.6937 0.6238 -0.3601
vn -0.9779 0.1478 -0.1478
vn -0.1935 0.6937 -0.6937
vn -0.6937 0.5093 -0.5093
vn -0.9779 0.1045 -0.1810
vn -0.1935 0.4905 -0.8497
vn -0.6937 0.3601 -0.6238
vn -0.9779 0.0541 -0.2019
vn -0.1935 0.2539 -0.9477
vn -0.6937 0.1864 -0.6957
vn 0.3736 -0.9276 -0.0000
vn 0.9201 -0.3917 -0.0000
vn -0.9201 -0.3917 -0.0000
vn -0.3736 -0.9276 -0.0000
vn 0.4091 -0.9080 0.0908
vn 0.9118 -0.3713 0.1753
vn 0.1781 -0.3726 0.9108
vn 0.0856 -0.9094 0.4070
vn 0.6576 -0.3630 0.6601
vn 0.3174 -0.8954 0.3122
vn -0.0856 -0.9094 0.4070
vn -0.1781 -0.3726 0.9108
vn -0.9118 -0.3713 0.1753
vn -0.4091 -0.9080 0.0908
vn -0.6576 -0.3630 0.6601
vn -0.3174 -0.8954 0.3122
vn 0.0856 -0.9094 -0.4070
vn 0.1781 -0.3726 -0.9108
vn 0.9118 -0.3713 -0.1753
vn 0.4091 -0.9080 -0.0908
vn 0.6576 -0.3630 -0.6601
vn 0.3174 -0.8954 -0.3122
vn -0.4091 -0.9080 -0.0908
vn -0.9118 -0.3713 -0.1753
vn -0.1781 -0.3726 -0.9108
vn -0.0856 -0.9094 -0.4070
vn -0.6576 -0.3630 -0.6601
vn -0.3174 -0.8954 -0.3122
vn 0.7071 -0.0000 -0.7071
vn -0.7071 -0.0000 0.7071
vn 0.7071 -0.0000 0.7071
vn -0.7071 -0.0000 -0.7071
vn 1.0000 -0.0000 -0.0000
vn -1.0000 -0.0000 -0.0000
vn -0.0000 -0.7071 -0.7071
vn -0.0000 -0.7071 0.7071
vn -0.0000 0.0654 0.9979
vn -0.0000 0.0654 -0.9979
vn -0.0000 1.0000 -0.0000
vn -0.0000 0.9979 0.0654
vn -0.0000 0.9979 -0.0654
vn -0.0000 0.9659 0.2588
vn -0.0000 0.2588 0.9659
vn -0.0000 0.8660 0.5000
vn -0.0000 0.7071 0.7071
vn -0.0000 0.5000 0.8660
vn -0.0000 0.2588 -0.9659
vn -0.0000 0.9659 -0.2588
vn -0.0000 0.5000 -0.8660
vn -0.0000 0.7071 -0.7071
vn -0.0000 0.8660 -0.5000
vn -0.0000 -0.9265 0.3763
vn -0.0000 -0.3890 0.9212
vn -0.0000 -0.9265 -0.3763
vn -0.0000 -0.3890 -0.9212
vn -0.0000 -0.0000 -1.0000
vn -0.0000 -0.0000 1.0000
vt 0.541160 0.444737
vt 0.443996 0.556036
vt 0.440327 0.553882
vt 0.500173 0.388115
vt 0.463705 0.574204
vt 0.566938 0.468447
vt 0.625825 0.504108
vt 0.466146 0.577677
vt 0.555257 0.454912
vt 0.553171 0.457164
vt 0.544267 0.442928
vt 0.887619 0.086333
vt 0.893061 0.115316
vt 0.850015 0.142502
vt 0.841823 0.136705
vt 0.521861 0.378558
vt 0.519319 0.379890
vt 0.488096 0.339717
vt 0.490818 0.338326
vt 0.633197 0.481244
vt 0.632179 0.483933
vt 0.568458 0.465065
vt 0.190481 0.849373
vt 0.178843 0.827083
vt 0.198716 0.819039
vt 0.207481 0.831293
vt 0.623802 0.515066
vt 0.705197 0.629158
vt 0.365171 0.937455
vt 0.341259 0.946605
vt 0.315190 0.948220
vt 0.288863 0.942866
vt 0.264117 0.930475
vt 0.243336 0.911596
vt 0.229123 0.887460
vt 0.225018 0.873845
vt 0.370409 0.321602
vt 0.489472 0.391040
vt 0.163525 0.816494
vt 0.149604 0.813719
vt 0.124611 0.801998
vt 0.104136 0.782998
vt 0.089540 0.759446
vt 0.081776 0.733548
vt 0.081211 0.707480
vt 0.088329 0.683049
vt 0.676776 0.512166
vt 0.717036 0.625422
vt 0.710649 0.626726
vt 0.467392 0.582419
vt 0.224860 0.861665
vt 0.228038 0.842438
vt 0.232527 0.829228
vt 0.238318 0.819891
vt 0.245947 0.812645
vt 0.256152 0.805999
vt 0.270570 0.797984
vt 0.139383 0.865683
vt 0.145421 0.828563
vt 0.163356 0.830415
vt 0.172218 0.869435
vt 0.463581 0.577840
vt 0.461395 0.576332
vt 0.369618 0.282138
vt 0.373117 0.309663
vt 0.367353 0.310229
vt 0.362899 0.282915
vt 0.709451 0.634087
vt 0.368875 0.943596
vt 0.435491 0.553035
vt 0.236951 0.767097
vt 0.230138 0.781692
vt 0.224607 0.791995
vt 0.217578 0.799596
vt 0.208268 0.805886
vt 0.195424 0.811269
vt 0.176104 0.815679
vt 0.692806 0.512251
vt 0.692248 0.514966
vt 0.677860 0.509214
vt 0.963897 0.122405
vt 0.944347 0.129707
vt 0.244687 0.792127
vt 0.236037 0.785146
vt 0.244131 0.772115
vt 0.255006 0.780829
vt 0.218782 0.819299
vt 0.211740 0.811413
vt 0.221302 0.803734
vt 0.227539 0.810168
vt 0.229095 0.795435
vt 0.235833 0.801580
vt 0.350268 0.987108
vt 0.344333 0.960510
vt 0.372517 0.949926
vt 0.384294 0.973359
vt 0.312828 0.990810
vt 0.314298 0.962933
vt 0.204123 0.943881
vt 0.231157 0.921576
vt 0.255394 0.943495
vt 0.239900 0.968860
vt 0.284095 0.957076
vt 0.275356 0.984330
vt 0.177506 0.901446
vt 0.214706 0.892986
vt 0.440375 0.556457
vt 0.442059 0.558515
vt 0.240696 0.769621
vt 0.437205 0.558023
vt 0.440003 0.561007
vt 0.715578 0.637464
vt 0.081944 0.679844
vt 0.365199 0.317779
vt 0.219224 0.860932
vt 0.223960 0.841231
vt 0.213378 0.859800
vt 0.219976 0.839687
vt 0.196903 0.815221
vt 0.177253 0.821314
vt 0.229702 0.827751
vt 0.226944 0.826092
vt 0.209945 0.808701
vt 0.236196 0.818112
vt 0.234077 0.816307
vt 0.219402 0.801678
vt 0.244077 0.810398
vt 0.242184 0.808200
vt 0.226850 0.793690
vt 0.254235 0.803043
vt 0.252177 0.800284
vt 0.233184 0.783336
vt 0.267735 0.794366
vt 0.264959 0.791054
vt 0.147482 0.820799
vt 0.120316 0.808349
vt 0.115816 0.815004
vt 0.237371 0.916468
vt 0.222262 0.890228
vt 0.098213 0.787835
vt 0.092052 0.792773
vt 0.259780 0.936870
vt 0.082689 0.762472
vt 0.075696 0.765513
vt 0.286469 0.949874
vt 0.074600 0.734625
vt 0.067150 0.735709
vt 0.314739 0.955448
vt 0.074245 0.706554
vt 0.067117 0.705540
vt 0.342751 0.953481
vt 0.075370 0.676718
vt 0.712761 0.629751
vt 0.716912 0.631323
vt 0.462282 0.581124
vt 0.459080 0.578581
vt 0.450159 0.569150
vt 0.218652 0.874678
vt 0.211325 0.875142
vt 0.163254 0.822999
vt 0.369208 0.314193
vt 0.372352 0.316030
vt 0.355195 0.284232
vt 0.361415 0.311975
vt 0.051891 0.666458
vt 0.454361 0.564587
vt 0.452363 0.566755
vt 0.484030 0.324805
vt 0.833143 0.129829
vt 0.851886 0.081179
vt 0.944349 0.133254
vt 0.894000 0.119412
vt 0.965641 0.128694
vt 0.849895 0.145609
vt 0.828008 0.035173
vt 0.839996 0.138635
vt 0.835880 0.129637
vt 0.856076 0.080812
vt 0.831668 0.034980
vt 0.831594 0.011003
vt 0.837526 0.011864
vt 0.486125 0.324167
vt 0.745237 0.633809
vt 0.744494 0.641829
vt 0.745500 0.626857
vt 0.096849 0.842178
vt 0.048561 0.776389
vt 0.039136 0.738838
vt 0.067692 0.811317
vt 0.040404 0.701060
s 1
usemtl Material
f 7/1/7 14/2/11 120/3/115 110/4/105
f 13/5/11 3/6/3 107/7/102 111/8/106
f 174/9/158 148/10/137 7/1/7 136/11/131
f 151/12/11 12/13/10 4/14/4 149/15/137
f 140/16/135 11/17/9 5/18/5 138/19/133
f 139/20/134 10/21/10 3/6/3 137/22/132
f 155/23/141 48/24/43 63/25/58 157/26/143
f 108/27/103 125/28/120 65/29/60 71/30/66 74/31/69 77/32/72 80/33/75 83/34/78 68/35/63 17/36/12
f 130/37/125 109/38/104 21/39/16 86/40/81 92/41/87 95/42/90 98/43/93 101/44/96 104/45/99 89/46/84
f 1/47/1 15/48/11 126/49/121 107/7/102
f 112/50/107 108/27/103 17/36/12 23/51/18 29/52/24 32/53/27 35/54/30 38/55/33 41/56/36 26/57/21
f 156/58/142 87/59/82 20/60/15 154/61/140
f 116/62/111 114/63/109 13/5/11 111/8/106
f 154/61/140 20/60/15 48/24/43 155/23/141
f 168/64/11 16/65/11 132/66/127 171/67/155
f 65/29/60 125/28/120 127/68/122 67/69/62
f 109/38/104 119/70/114 44/71/39 50/72/45 53/73/48 56/74/51 59/75/54 62/76/57 47/77/42 21/39/16
f 5/18/5 11/17/9 110/4/105
f 173/78/157 150/79/136 1/47/1 135/80/130
f 147/81/136 2/82/2 12/13/10 151/12/11
f 135/80/130 1/47/1 10/21/10 139/20/134
f 158/83/144 51/84/46 45/85/40 152/86/138
f 159/87/145 60/88/55 57/89/52 160/90/146
f 160/90/146 57/89/52 54/91/49 161/92/147
f 161/92/147 54/91/49 51/84/46 158/83/144
f 162/93/148 72/94/67 66/95/61 153/96/139
f 157/26/143 63/25/58 60/88/55 159/87/145
f 164/97/150 75/98/70 72/94/67 162/93/148
f 163/99/149 84/100/79 81/101/76 166/102/152
f 166/102/152 81/101/76 78/103/73 165/104/151
f 165/104/151 78/103/73 75/98/70 164/97/150
f 156/105/142 69/106/64 84/100/79 163/99/149
f 122/107/117 120/3/115 14/2/11 117/108/112
f 46/109/41 121/110/116 118/111/113 45/85/40
f 67/69/62 127/68/122 124/112/119 66/95/61
f 130/37/125 89/46/84 91/113/86 133/114/128
f 29/52/24 23/51/18 25/115/20 31/116/26
f 31/116/26 25/115/20 24/117/19 30/118/25
f 47/77/42 62/76/57 64/119/59 49/120/44
f 49/120/44 64/119/59 63/25/58 48/24/43
f 32/53/27 29/52/24 31/116/26 34/121/29
f 34/121/29 31/116/26 30/118/25 33/122/28
f 62/76/57 59/75/54 61/123/56 64/119/59
f 64/119/59 61/123/56 60/88/55 63/25/58
f 35/54/30 32/53/27 34/121/29 37/124/32
f 37/124/32 34/121/29 33/122/28 36/125/31
f 59/75/54 56/74/51 58/126/53 61/123/56
f 61/123/56 58/126/53 57/89/52 60/88/55
f 38/55/33 35/54/30 37/124/32 40/127/35
f 40/127/35 37/124/32 36/125/31 39/128/34
f 56/74/51 53/73/48 55/129/50 58/126/53
f 58/126/53 55/129/50 54/91/49 57/89/52
f 41/56/36 38/55/33 40/127/35 43/130/38
f 43/130/38 40/127/35 39/128/34 42/131/37
f 53/73/48 50/72/45 52/132/47 55/129/50
f 55/129/50 52/132/47 51/84/46 54/91/49
f 26/57/21 41/56/36 43/130/38 28/133/23
f 28/133/23 43/130/38 42/131/37 27/134/22
f 50/72/45 44/71/39 46/109/41 52/132/47
f 52/132/47 46/109/41 45/85/40 51/84/46
f 92/41/87 86/40/81 88/135/83 94/136/89
f 94/136/89 88/135/83 87/59/82 93/137/88
f 68/35/63 83/34/78 85/138/80 70/139/65
f 70/139/65 85/138/80 84/100/79 69/106/64
f 95/42/90 92/41/87 94/136/89 97/140/92
f 97/140/92 94/136/89 93/137/88 96/141/91
f 83/34/78 80/33/75 82/142/77 85/138/80
f 85/138/80 82/142/77 81/101/76 84/100/79
f 98/43/93 95/42/90 97/140/92 100/143/95
f 100/143/95 97/140/92 96/141/91 99/144/94
f 80/33/75 77/32/72 79/145/74 82/142/77
f 82/142/77 79/145/74 78/103/73 81/101/76
f 101/44/96 98/43/93 100/143/95 103/146/98
f 103/146/98 100/143/95 99/144/94 102/147/97
f 77/32/72 74/31/69 76/148/71 79/145/74
f 79/145/74 76/148/71 75/98/70 78/103/73
f 104/45/99 101/44/96 103/146/98 106/149/101
f 106/149/101 103/146/98 102/147/97 105/150/100
f 74/31/69 71/30/66 73/151/68 76/148/71
f 76/148/71 73/151/68 72/94/67 75/98/70
f 89/46/84 104/45/99 106/149/101 91/113/86
f 91/113/86 106/149/101 105/150/100 90/152/85
f 71/30/66 65/29/60 67/69/62 73/151/68
f 73/151/68 67/69/62 66/95/61 72/94/67
f 128/153/123 126/49/121 15/48/11 123/154/118
f 44/71/39 119/70/114 121/110/116 46/109/41
f 115/155/110 28/133/23 27/134/22 113/156/108
f 170/157/154 113/156/108 27/134/22 152/86/138
f 23/51/18 17/36/12 19/158/14 25/115/20
f 25/115/20 19/158/14 18/159/13 24/117/19
f 21/39/16 47/77/42 49/120/44 22/160/17
f 22/160/17 49/120/44 48/24/43 20/60/15
f 17/36/12 68/35/63 70/139/65 19/158/14
f 19/158/14 70/139/65 69/106/64 18/159/13
f 86/40/81 21/39/16 22/160/17 88/135/83
f 88/135/83 22/160/17 20/60/15 87/59/82
f 134/161/129 132/66/127 16/65/11 129/162/124
f 172/163/156 131/164/126 90/152/85 153/165/139
f 133/114/128 91/113/86 90/152/85 131/164/126
f 167/166/11 13/5/11 114/63/109 169/167/153
f 148/10/137 3/6/3 13/5/11 167/166/11
f 150/168/136 5/18/5 16/65/11 168/64/11
f 112/50/107 26/57/21 28/133/23 115/155/110
f 112/50/107 115/155/110 116/62/111 111/8/106
f 115/155/110 113/156/108 114/63/109 116/62/111
f 118/111/113 121/110/116 122/107/117 117/108/112
f 121/110/116 119/70/114 120/3/115 122/107/117
f 124/112/119 127/68/122 128/153/123 123/154/118
f 127/68/122 125/28/120 126/49/121 128/153/123
f 130/37/125 133/114/128 134/161/129 129/162/124
f 133/114/128 131/164/126 132/66/127 134/161/129
f 169/167/153 114/63/109 113/156/108 170/157/154
f 111/8/106 107/7/102 108/27/103 112/50/107
f 119/70/114 109/38/104 110/4/105 120/3/115
f 171/67/155 132/66/127 131/164/126 172/163/156
f 125/28/120 108/27/103 107/7/102 126/49/121
f 109/38/104 130/37/125 129/162/124 110/4/105
f 3/6/3 10/21/10 107/7/102
f 136/11/131 7/1/7 11/17/9 140/16/135
f 10/21/10 1/47/1 107/7/102
f 16/65/11 5/18/5 110/4/105 129/162/124
f 11/17/9 7/1/7 110/4/105
f 146/169/131 136/11/131 140/16/135 145/170/135
f 141/171/130 135/80/130 139/20/134 144/172/134
f 176/173/157 173/78/157 135/80/130 141/171/130
f 144/172/134 139/20/134 137/22/132 142/174/132
f 145/170/135 140/16/135 138/19/133 143/175/133
f 175/176/158 174/9/158 136/11/131 146/169/131
f 149/15/137 175/176/158 146/169/131 8/177/8
f 9/178/9 145/170/135 143/175/133 6/179/6
f 12/13/10 144/172/134 142/174/132 4/14/4
f 147/81/136 176/173/157 141/171/130 2/82/2
f 2/82/2 141/171/130 144/172/134 12/13/10
f 8/177/8 146/169/131 145/170/135 9/178/9
f 6/179/6 143/175/133 176/180/157 147/181/136
f 4/14/4 142/174/132 175/176/158 149/15/137
f 142/174/132 137/22/132 174/9/158 175/176/158
f 143/175/133 138/19/133 173/182/157 176/180/157
f 123/154/118 171/183/155 172/184/156 124/112/119
f 117/108/112 169/167/153 170/157/154 118/111/113
f 1/47/1 150/79/136 168/185/11 15/48/11
f 7/1/7 148/10/137 167/166/11 14/2/11
f 14/2/11 167/166/11 169/167/153 117/108/112
f 124/112/119 172/184/156 153/96/139 66/95/61
f 118/111/113 170/157/154 152/86/138 45/85/40
f 87/59/82 156/58/142 163/186/149 93/137/88
f 99/144/94 165/187/151 164/188/150 102/147/97
f 96/141/91 166/189/152 165/187/151 99/144/94
f 93/137/88 163/186/149 166/189/152 96/141/91
f 102/147/97 164/188/150 162/190/148 105/150/100
f 30/118/25 157/26/143 159/87/145 33/122/28
f 105/150/100 162/190/148 153/165/139 90/152/85
f 39/128/34 161/92/147 158/83/144 42/131/37
f 36/125/31 160/90/146 161/92/147 39/128/34
f 33/122/28 159/87/145 160/90/146 36/125/31
f 42/131/37 158/83/144 152/86/138 27/134/22
f 6/179/6 147/181/136 151/12/11 9/178/9
f 138/19/133 5/18/5 150/168/136 173/182/157
f 15/48/11 168/185/11 171/183/155 123/154/118
f 18/159/13 154/61/140 155/23/141 24/117/19
f 69/106/64 156/105/142 154/61/140 18/159/13
f 24/117/19 155/23/141 157/26/143 30/118/25
f 9/178/9 151/12/11 149/15/137 8/177/8
f 137/22/132 3/6/3 148/10/137 174/9/158
