# Blender 4.1.1
# www.blender.org
mtllib banana electric.mtl
o Cube.001
v -0.233910 1.118574 1.476211
v -0.288624 0.524858 -1.399152
v 0.285365 0.524858 -1.399152
v 0.233508 1.118574 1.476211
v 0.327099 0.462261 0.339659
v -0.321092 0.462261 0.339659
v 0.316824 0.356099 -0.516183
v -0.317330 0.356099 -0.516183
v -0.325702 0.672621 1.001263
v 0.325184 0.672621 1.001263
v -0.122110 1.596208 1.787744
v 0.103496 1.596208 1.787744
v -0.153210 1.217546 1.572693
v 0.180873 1.217546 1.572693
v -0.071609 0.768596 -1.729956
v -0.206731 0.605952 -1.571913
v 0.217676 0.605952 -1.571913
v 0.069554 0.768596 -1.729956
v -0.001397 0.214559 -1.442266
v -0.001397 0.816656 -1.356947
v -0.000012 0.899450 1.601948
v -0.000012 1.323097 1.354263
v 0.003265 0.791808 0.289826
v 0.003265 0.112030 0.392621
v 0.000003 0.009557 -0.516183
v 0.000003 0.682175 -0.516183
v 0.000004 0.992508 0.912849
v 0.000004 0.331727 1.089676
v -0.009070 1.518648 1.841113
v -0.009070 1.673769 1.734374
v 0.011397 1.102694 1.651724
v 0.011397 1.332399 1.493662
v 0.005711 0.365058 -1.643250
v -0.000888 0.672885 -1.768071
v 0.005711 0.828168 -1.504229
v -0.000888 0.853729 -1.695261
v -0.001027 0.800983 -1.772949
v -0.009307 1.596208 1.787744
v -0.260008 1.075938 1.442613
v 0.259576 1.075938 1.442613
v -0.000006 1.303387 1.307206
v -0.000006 0.832258 1.582233
v -0.176749 0.952394 1.588209
v -0.199038 0.974294 1.575492
v -0.175180 1.283736 1.364478
v -0.198787 1.263894 1.376215
v -0.245056 0.309038 -1.435212
v -0.222427 0.282881 -1.438908
v -0.221016 0.765733 -1.359450
v -0.244787 0.742009 -1.362869
v 0.176632 0.952366 1.588216
v 0.198987 0.974343 1.575458
v 0.175326 1.283697 1.364488
v 0.198734 1.263863 1.376237
v 0.219609 0.282874 -1.438908
v 0.242228 0.309073 -1.435206
v 0.241956 0.742000 -1.362870
v 0.218321 0.765710 -1.359451
v -0.246759 0.188539 0.381051
v -0.271830 0.217635 0.376651
v -0.245346 0.734742 0.298455
v -0.271593 0.708065 0.302489
v 0.253246 0.188526 0.381053
v 0.278323 0.217670 0.376646
v 0.251984 0.734718 0.298459
v 0.278087 0.708038 0.302493
v -0.268906 0.599299 -0.516183
v -0.243177 0.625721 -0.516183
v 0.269128 0.114203 -0.516183
v 0.244562 0.085244 -0.516183
v -0.269158 0.114166 -0.516183
v -0.244590 0.085255 -0.516183
v 0.268874 0.599282 -0.516183
v 0.243288 0.625696 -0.516183
v -0.251003 0.409410 1.089676
v -0.276222 0.437651 1.082150
v 0.249687 0.934545 0.912849
v 0.275956 0.908691 0.919996
v -0.275985 0.908715 0.919988
v -0.249561 0.934572 0.912849
v 0.276195 0.437696 1.082135
v 0.250959 0.409394 1.089676
v -0.107265 1.535262 1.829682
v -0.082785 1.518648 1.841113
v -0.083048 1.673769 1.734374
v -0.106999 1.658248 1.745054
v 0.088768 1.658230 1.745066
v 0.065035 1.673769 1.734374
v 0.065124 1.518648 1.841113
v 0.089025 1.535269 1.829676
v -0.107818 1.332399 1.493662
v -0.131427 1.316868 1.504349
v 0.130752 1.332399 1.493662
v 0.154853 1.316962 1.504284
v 0.155122 1.119158 1.640394
v 0.130843 1.102694 1.651724
v -0.131672 1.119345 1.640266
v -0.107545 1.102694 1.651724
v -0.176126 0.753600 -1.521510
v -0.153074 0.778157 -1.514009
v -0.063726 0.804223 -1.713652
v -0.042962 0.831051 -1.702593
v -0.044205 0.704010 -1.758007
v -0.063608 0.732433 -1.746505
v -0.152757 0.432270 -1.630106
v -0.174597 0.458552 -1.622231
v 0.061748 0.732466 -1.746490
v 0.042483 0.704049 -1.757995
v 0.185956 0.458511 -1.622246
v 0.164142 0.432254 -1.630109
v 0.164494 0.778157 -1.514009
v 0.187509 0.753529 -1.521534
v 0.041294 0.830993 -1.702612
v 0.061870 0.804164 -1.713679
v -0.220586 0.912741 1.554710
v -0.199216 0.891934 1.566746
v 0.220329 1.240007 1.329918
v 0.197955 1.258905 1.318750
v -0.220370 1.240030 1.329903
v -0.197844 1.258932 1.318743
v 0.220546 0.912777 1.554685
v 0.199140 0.891915 1.566751
vn -0.8810 0.2761 0.3841
vn -0.9762 0.0339 -0.2144
vn 0.9821 0.0266 -0.1863
vn 0.9124 0.2380 0.3329
vn 0.9999 -0.0111 -0.0017
vn -0.9999 -0.0121 -0.0025
vn 0.9995 -0.0182 -0.0245
vn -0.9996 -0.0182 -0.0193
vn -0.9980 0.0023 0.0636
vn 0.9977 0.0036 0.0680
vn -0.7278 0.4203 0.5420
vn 0.6868 0.4452 0.5745
vn -0.9478 0.1678 0.2712
vn 0.9554 0.1558 0.2510
vn -0.6951 0.2843 -0.6603
vn -0.8770 0.1269 -0.4635
vn 0.8843 0.1273 -0.4491
vn 0.6772 0.2886 -0.6768
vn -0.0023 -0.9058 -0.4238
vn -0.0040 0.9958 0.0912
vn -0.0013 -0.2854 0.9584
vn -0.0036 0.9583 -0.2857
vn 0.0007 0.9748 -0.2231
vn 0.0007 -0.9786 0.2056
vn -0.0002 -0.9987 -0.0512
vn -0.0002 0.9999 0.0120
vn -0.0003 0.8780 -0.4786
vn -0.0005 -0.8633 0.5047
vn -0.0000 0.0876 0.9962
vn -0.0000 1.0000 0.0057
vn 0.0021 -0.3537 0.9354
vn 0.0039 0.8404 -0.5420
vn 0.0047 -0.6169 -0.7870
vn -0.0030 -0.2256 -0.9742
vn 0.0076 0.9983 0.0580
vn -0.0045 0.9719 -0.2353
vn -0.0005 0.4510 -0.8925
vn -0.0000 0.5669 0.8238
vn -0.9596 0.1488 0.2388
vn 0.9597 0.1486 0.2386
vn -0.0000 0.8658 -0.5003
vn -0.0000 -0.5303 0.8478
vn -0.3520 -0.1936 0.9158
vn -0.7269 0.0257 0.6863
vn -0.4253 0.8877 -0.1765
vn -0.7891 0.6042 0.1105
vn -0.8654 -0.3762 -0.3310
vn -0.5366 -0.7382 -0.4088
vn -0.5088 0.8609 -0.0032
vn -0.8674 0.4833 -0.1184
vn 0.3512 -0.2131 0.9117
vn 0.7460 -0.0128 0.6658
vn 0.4217 0.8823 -0.2089
vn 0.8065 0.5886 0.0553
vn 0.5357 -0.7448 -0.3979
vn 0.8690 -0.3840 -0.3120
vn 0.8727 0.4799 -0.0896
vn 0.5080 0.8611 0.0198
vn -0.5406 -0.8235 0.1721
vn -0.8937 -0.4396 0.0899
vn -0.4956 0.8463 -0.1954
vn -0.8911 0.4417 -0.1040
vn 0.5420 -0.8226 0.1723
vn 0.8947 -0.4375 0.0902
vn 0.4980 0.8451 -0.1945
vn 0.8923 0.4397 -0.1025
vn -0.8965 0.4429 -0.0066
vn -0.5049 0.8631 0.0065
vn 0.8912 -0.4519 -0.0392
vn 0.5400 -0.8402 -0.0493
vn -0.8909 -0.4528 -0.0348
vn -0.5400 -0.8404 -0.0467
vn 0.8975 0.4409 -0.0117
vn 0.5059 0.8626 0.0035
vn -0.5161 -0.7231 0.4591
vn -0.8785 -0.3835 0.2850
vn 0.5002 0.7741 -0.3881
vn 0.8984 0.4090 -0.1600
vn -0.8973 0.4093 -0.1653
vn -0.4991 0.7735 -0.3907
vn 0.8782 -0.3817 0.2883
vn 0.5154 -0.7223 0.4612
vn -0.6064 0.1934 0.7712
vn -0.2113 0.0272 0.9770
vn -0.2553 0.9661 -0.0383
vn -0.6683 0.7144 0.2073
vn 0.6409 0.7326 0.2292
vn 0.2377 0.9708 -0.0321
vn 0.1963 0.0374 0.9798
vn 0.5650 0.2156 0.7964
vn -0.3680 0.8087 -0.4589
vn -0.8604 0.5016 -0.0904
vn 0.3870 0.7979 -0.4622
vn 0.8651 0.4891 -0.1116
vn 0.7695 -0.0994 0.6309
vn 0.3108 -0.2973 0.9028
vn -0.7496 -0.0814 0.6568
vn -0.2894 -0.2907 0.9120
vn -0.8100 0.4953 -0.3139
vn -0.5195 0.8479 -0.1055
vn -0.6667 0.5901 -0.4553
vn -0.5194 0.7982 -0.3051
vn -0.4346 -0.0980 -0.8953
vn -0.5876 0.0192 -0.8089
vn -0.4678 -0.4562 -0.7570
vn -0.7509 -0.1729 -0.6374
vn 0.5742 0.0282 -0.8182
vn 0.4273 -0.0913 -0.8995
vn 0.7615 -0.1732 -0.6247
vn 0.4760 -0.4572 -0.7513
vn 0.5262 0.8438 -0.1058
vn 0.8172 0.4911 -0.3017
vn 0.5121 0.7973 -0.3196
vn 0.6528 0.5892 -0.4761
vn -0.8113 -0.1503 0.5649
vn -0.4480 -0.4115 0.7937
vn 0.8586 0.5057 -0.0837
vn 0.4830 0.7916 -0.3743
vn -0.8575 0.5074 -0.0852
vn -0.4815 0.7921 -0.3751
vn 0.8119 -0.1496 0.5643
vn 0.4482 -0.4113 0.7937
vt 0.214763 0.759883
vt 0.247239 0.785492
vt 0.231446 0.806258
vt 0.207345 0.789659
vt 0.115071 0.733523
vt 0.165863 0.742800
vt 0.169959 0.786582
vt 0.132441 0.793231
vt 0.777129 0.211961
vt 0.745641 0.182654
vt 0.769272 0.158344
vt 0.796058 0.179364
vt 0.812074 0.106745
vt 0.816069 0.110966
vt 0.933202 0.259981
vt 0.878248 0.257465
vt 0.876017 0.209048
vt 0.910097 0.196461
vt 0.710966 0.158543
vt 0.743844 0.135269
vt 0.707538 0.605199
vt 0.653383 0.554693
vt 0.771309 0.398644
vt 0.825597 0.439989
vt 0.774348 0.662889
vt 0.715817 0.612661
vt 0.834240 0.446065
vt 0.898383 0.485479
vt 0.635052 0.081420
vt 0.664185 0.122695
vt 0.530590 0.199273
vt 0.480155 0.153811
vt 0.376077 0.630544
vt 0.317570 0.586080
vt 0.469848 0.395554
vt 0.530290 0.444977
vt 0.278344 0.812995
vt 0.252074 0.826679
vt 0.304282 0.858147
vt 0.322669 0.906669
vt 0.262719 0.898871
vt 0.262081 0.861926
vt 0.208902 0.756505
vt 0.201543 0.787831
vt 0.585337 0.243293
vt 0.460981 0.388964
vt 0.399230 0.343999
vt 0.876982 0.275900
vt 0.937068 0.282053
vt 0.309578 0.580288
vt 0.249678 0.541470
vt 0.430824 0.679580
vt 0.589968 0.495152
vt 0.487261 0.737966
vt 0.437987 0.686316
vt 0.598055 0.502605
vt 0.807476 0.103305
vt 0.827106 0.112837
vt 0.819115 0.112379
vt 0.820678 0.096854
vt 0.845823 0.066678
vt 0.804191 0.093104
vt 0.804936 0.081086
vt 0.808549 0.074534
vt 0.867466 0.208889
vt 0.833259 0.198044
vt 0.839265 0.109945
vt 0.772262 0.224646
vt 0.738132 0.191980
vt 0.678396 0.117362
vt 0.705045 0.153117
vt 0.694101 0.160773
vt 0.822296 0.251855
vt 0.778249 0.229178
vt 0.783736 0.216735
vt 0.824908 0.236637
vt 0.188854 0.505740
vt 0.282725 0.818152
vt 0.254927 0.831964
vt 0.325370 0.915648
vt 0.333158 0.987419
vt 0.239020 0.960496
vt 0.260602 0.907839
vt 0.074996 0.828729
vt 0.123783 0.797100
vt 0.189322 0.837998
vt 0.188112 0.857388
vt 0.207051 0.852717
vt 0.217503 0.840805
vt 0.218710 0.834671
vt 0.217992 0.829849
vt 0.214945 0.825205
vt 0.105768 0.732548
vt 0.033747 0.739138
vt 0.113606 0.467424
vt 0.179545 0.500631
vt 0.206822 0.834955
vt 0.199132 0.825522
vt 0.204942 0.823247
vt 0.209822 0.823061
vt 0.270173 0.244807
vt 0.330450 0.293122
vt 0.213514 0.847264
vt 0.699684 0.165735
vt 0.805734 0.100492
vt 0.738525 0.130016
vt 0.718678 0.099856
vt 0.533617 0.791124
vt 0.472636 0.146483
vt 0.422107 0.090895
vt 0.614811 0.015776
vt 0.630963 0.074228
vt 0.339313 0.299878
vt 0.540357 0.799353
vt 0.585030 0.858135
vt 0.593931 0.249218
vt 0.654863 0.293632
vt 0.868960 0.255150
vt 0.845046 0.105172
vt 0.193530 0.830635
vt 0.869124 0.273135
vt 0.637387 0.015883
vt 0.648726 0.069855
vt 0.700753 0.066456
vt 0.717486 0.352752
vt 0.710031 0.345395
vt 0.801914 0.183693
vt 0.652565 0.078467
vt 0.698824 0.057749
vt 0.704868 0.020931
s 1
usemtl Cube.002
f 49/1/49 20/2/20 35/3/35 100/4/100
f 47/5/47 2/6/2 16/7/16 106/8/106
f 53/9/53 22/10/22 32/11/32 93/12/93
f 93/12/93 32/11/32 30/13/30 88/14/88
f 21/15/21 51/16/51 96/17/96 31/18/31
f 22/10/22 45/19/45 91/20/91 32/11/32
f 64/21/64 5/22/5 10/23/10 81/24/81
f 24/25/24 63/26/63 82/27/82 28/28/28
f 115/29/115 39/30/39 9/31/9 76/32/76
f 26/33/26 68/34/68 61/35/61 23/36/23
f 20/2/20 58/37/58 111/38/111 35/3/35
f 3/39/3 56/40/56 109/41/109 17/42/17
f 2/6/2 50/43/50 99/44/99 16/7/16
f 9/31/9 79/45/79 62/46/62 6/47/6
f 28/28/28 82/27/82 122/48/122 42/49/42
f 6/47/6 62/46/62 67/50/67 8/51/8
f 74/52/74 26/33/26 23/36/23 65/53/65
f 7/54/7 73/55/73 66/56/66 5/22/5
f 32/11/32 91/20/91 85/57/85 30/13/30
f 12/58/12 87/59/87 88/14/88 30/13/30 38/60/38
f 29/61/29 38/60/38 11/62/11 83/63/83 84/64/84
f 95/65/95 14/66/14 12/58/12 90/67/90
f 118/68/118 41/69/41 22/10/22 53/9/53
f 1/70/1 46/71/46 119/72/119 39/30/39
f 40/73/40 117/74/117 54/75/54 4/76/4
f 71/77/71 8/51/8 2/6/2 47/5/47
f 57/78/57 3/39/3 17/42/17 112/79/112
f 55/80/55 19/81/19 33/82/33 110/83/110
f 33/84/33 105/85/105 103/86/103 34/87/34
f 110/83/110 33/82/33 34/87/34 108/88/108
f 112/79/112 17/42/17 18/89/18 114/90/114
f 35/3/35 111/38/111 113/91/113 36/92/36
f 8/51/8 67/50/67 50/43/50 2/6/2
f 48/93/48 19/94/19 25/95/25 72/96/72
f 37/97/37 36/92/36 113/91/113 114/90/114 18/89/18
f 15/98/15 101/99/101 102/100/102 36/92/36 37/97/37
f 72/96/72 25/95/25 24/101/24 59/102/59
f 17/42/17 109/41/109 107/103/107 18/89/18
f 42/49/42 122/48/122 51/16/51 21/15/21
f 41/69/41 120/104/120 45/19/45 22/10/22
f 38/60/38 30/13/30 85/57/85 86/105/86 11/62/11
f 100/4/100 35/3/35 36/92/36 102/100/102
f 92/106/92 13/107/13 11/62/11 86/105/86
f 69/108/69 7/54/7 5/22/5 64/21/64
f 75/109/75 28/110/28 42/111/42 116/112/116
f 76/32/76 9/31/9 6/47/6 60/113/60
f 19/81/19 55/80/55 70/114/70 25/115/25
f 23/36/23 61/35/61 80/116/80 27/117/27
f 25/115/25 70/114/70 63/26/63 24/25/24
f 52/118/52 4/76/4 14/66/14 95/65/95
f 19/94/19 48/93/48 105/85/105 33/84/33
f 31/18/31 96/17/96 89/119/89 29/61/29
f 15/98/15 104/120/104 106/8/106 16/7/16
f 101/99/101 15/98/15 16/7/16 99/44/99
f 34/87/34 37/97/37 18/89/18 107/103/107 108/88/108
f 103/86/103 104/120/104 15/98/15 37/97/37 34/87/34
f 121/121/121 40/73/40 4/76/4 52/118/52
f 56/40/56 3/39/3 7/54/7 69/108/69
f 116/112/116 42/111/42 21/122/21 43/123/43
f 13/107/13 97/124/97 83/63/83 11/62/11
f 89/119/89 90/67/90 12/58/12 38/60/38 29/61/29
f 60/113/60 6/47/6 8/51/8 71/77/71
f 5/22/5 66/56/66 78/125/78 10/23/10
f 3/39/3 57/78/57 73/55/73 7/54/7
f 20/2/20 49/1/49 68/34/68 26/33/26
f 59/102/59 24/101/24 28/110/28 75/109/75
f 65/53/65 23/36/23 27/117/27 77/126/77
f 4/76/4 54/75/54 94/127/94 14/66/14
f 1/70/1 44/128/44 97/124/97 13/107/13
f 14/66/14 94/127/94 87/59/87 12/58/12
f 58/37/58 20/2/20 26/33/26 74/52/74
f 77/126/77 27/117/27 41/69/41 118/68/118
f 10/23/10 78/125/78 117/74/117 40/73/40
f 98/129/98 31/130/31 29/61/29 84/64/84
f 43/123/43 21/122/21 31/130/31 98/129/98
f 46/71/46 1/70/1 13/107/13 92/106/92
f 39/30/39 119/72/119 79/45/79 9/31/9
f 81/24/81 10/23/10 40/73/40 121/121/121
f 27/117/27 80/116/80 120/104/120 41/69/41
f 116/112/116 43/123/43 44/128/44 115/29/115
f 68/34/68 49/1/49 50/43/50 67/50/67
f 70/114/70 55/80/55 56/40/56 69/108/69
f 118/68/118 53/9/53 54/75/54 117/74/117
f 72/96/72 59/102/59 60/113/60 71/77/71
f 80/116/80 61/35/61 62/46/62 79/45/79
f 82/27/82 63/26/63 64/21/64 81/24/81
f 74/52/74 65/53/65 66/56/66 73/55/73
f 61/35/61 68/34/68 67/50/67 62/46/62
f 63/26/63 70/114/70 69/108/69 64/21/64
f 48/93/48 72/96/72 71/77/71 47/5/47
f 58/37/58 74/52/74 73/55/73 57/78/57
f 59/102/59 75/109/75 76/32/76 60/113/60
f 65/53/65 77/126/77 78/125/78 66/56/66
f 120/104/120 80/116/80 79/45/79 119/72/119
f 122/48/122 82/27/82 81/24/81 121/121/121
f 92/106/92 86/105/86 85/57/85 91/20/91
f 94/127/94 54/75/54 53/9/53 93/12/93
f 96/17/96 51/16/51 52/118/52 95/65/95
f 98/129/98 84/64/84 83/63/83 97/124/97
f 46/71/46 92/106/92 91/20/91 45/19/45
f 87/59/87 94/127/94 93/12/93 88/14/88
f 89/119/89 96/17/96 95/65/95 90/67/90
f 43/123/43 98/129/98 97/124/97 44/128/44
f 100/4/100 102/100/102 101/99/101 99/44/99
f 103/86/103 105/85/105 106/8/106 104/120/104
f 107/103/107 109/41/109 110/83/110 108/88/108
f 112/79/112 114/90/114 113/91/113 111/38/111
f 105/85/105 48/93/48 47/5/47 106/8/106
f 49/1/49 100/4/100 99/44/99 50/43/50
f 57/78/57 112/79/112 111/38/111 58/37/58
f 109/41/109 56/40/56 55/80/55 110/83/110
f 75/109/75 116/112/116 115/29/115 76/32/76
f 77/126/77 118/68/118 117/74/117 78/125/78
f 45/19/45 120/104/120 119/72/119 46/71/46
f 51/16/51 122/48/122 121/121/121 52/118/52
f 44/128/44 1/70/1 39/30/39 115/29/115
