# Blender 4.1.1
# www.blender.org
mtllib Blueberry.mtl
o Cube.003
v -0.500000 -0.500000 -0.500000
v -0.500000 0.500000 -0.500000
v -0.572933 -0.572933 -0.296650
v -0.609568 -0.609568 0.000000
v -0.609568 0.609568 0.000000
v -0.572933 0.572933 -0.296650
v -0.572933 0.296650 -0.572933
v -0.609568 -0.000000 -0.609568
v -0.572933 -0.296650 -0.572933
v 0.000000 -0.609568 -0.609568
v -0.296650 -0.572933 -0.572933
v -0.296650 0.572933 -0.572933
v 0.000000 0.609568 -0.609568
v -0.781829 -0.333140 0.000000
v -0.839506 0.000000 0.000000
v -0.781829 0.333140 0.000000
v -0.728990 -0.316157 -0.396783
v -0.781829 0.000000 -0.333140
v -0.728990 0.316157 -0.316157
v -0.385750 -0.316157 -0.728990
v -0.333140 -0.000000 -0.781829
v -0.316157 0.316157 -0.728990
v 0.000000 -0.333140 -0.781829
v 0.000000 0.000000 -0.839506
v 0.000000 0.333140 -0.781829
v -0.316157 -0.728990 -0.316157
v 0.000000 -0.781829 -0.333140
v -0.333140 -0.781829 0.000000
v 0.000000 -0.839506 0.000000
v 0.000000 0.759954 -0.458542
v -0.324238 0.699032 -0.324238
v 0.000000 0.758090 0.000000
v -0.458542 0.759954 0.000000
v -0.112590 0.935510 -0.168885
v -1.548899 -0.066115 0.000000
v -1.444219 -0.103221 -0.126346
v -0.126346 -0.103221 -1.444219
v 0.000000 -0.066115 -1.548899
v 0.000000 -0.336482 -1.012545
v 0.000000 -0.198307 -1.318182
v -0.208734 -0.169430 -1.260347
v -0.299505 -0.314593 -0.930346
v -0.924473 -0.314639 -0.283767
v -1.259606 -0.169435 -0.193744
v -1.319479 -0.198325 0.000000
v -1.011248 -0.336463 0.000000
v 0.500000 -0.500000 -0.500000
v 0.500000 0.500000 -0.500000
v 0.572933 -0.572933 -0.296650
v 0.609568 -0.609568 0.000000
v 0.609568 0.609568 0.000000
v 0.572933 0.572933 -0.296650
v 0.572933 0.296650 -0.572933
v 0.609568 -0.000000 -0.609568
v 0.572933 -0.296650 -0.572933
v 0.296650 -0.572933 -0.572933
v 0.296650 0.572933 -0.572933
v 0.781829 -0.333140 0.000000
v 0.839506 0.000000 0.000000
v 0.781829 0.333140 0.000000
v 0.728990 -0.316157 -0.396783
v 0.781829 0.000000 -0.333140
v 0.728990 0.316157 -0.316157
v 0.385750 -0.316157 -0.728990
v 0.333140 -0.000000 -0.781829
v 0.316157 0.316157 -0.728990
v 0.316157 -0.728990 -0.316157
v 0.333140 -0.781829 0.000000
v 0.324238 0.699032 -0.324238
v 0.458542 0.759954 0.000000
v 0.112590 0.935510 -0.168885
v 1.548899 -0.066115 0.000000
v 1.444219 -0.103221 -0.126346
v 0.126346 -0.103221 -1.444219
v 0.208734 -0.169430 -1.260347
v 0.299505 -0.314593 -0.930346
v 0.924473 -0.314639 -0.283767
v 1.259606 -0.169435 -0.193744
v 1.319479 -0.198325 0.000000
v 1.011248 -0.336463 0.000000
v -0.500000 -0.500000 0.500000
v -0.500000 0.500000 0.500000
v -0.572933 -0.572933 0.296650
v -0.572933 0.572933 0.296650
v -0.572933 0.296650 0.572933
v -0.609568 -0.000000 0.609568
v -0.572933 -0.296650 0.572933
v 0.000000 -0.609568 0.609568
v -0.296650 -0.572933 0.572933
v -0.296650 0.572933 0.572933
v 0.000000 0.609568 0.609568
v -0.728990 -0.316157 0.396783
v -0.781829 0.000000 0.333140
v -0.728990 0.316157 0.316157
v -0.385750 -0.316157 0.728990
v -0.333140 -0.000000 0.781829
v -0.316157 0.316157 0.728990
v 0.000000 -0.333140 0.781829
v 0.000000 0.000000 0.839506
v 0.000000 0.333140 0.781829
v -0.316157 -0.728990 0.316157
v 0.000000 -0.781829 0.333140
v 0.000000 0.759954 0.458542
v -0.324238 0.699032 0.324238
v -0.112590 0.935510 0.168885
v -1.444219 -0.103221 0.126346
v -0.126346 -0.103221 1.444219
v 0.000000 -0.066115 1.548899
v 0.000000 -0.336482 1.012545
v 0.000000 -0.198307 1.318182
v -0.208734 -0.169430 1.260347
v -0.299505 -0.314593 0.930346
v -0.924473 -0.314639 0.283767
v -1.259606 -0.169435 0.193744
v 0.500000 -0.500000 0.500000
v 0.500000 0.500000 0.500000
v 0.572933 -0.572933 0.296650
v 0.572933 0.572933 0.296650
v 0.572933 0.296650 0.572933
v 0.609568 -0.000000 0.609568
v 0.572933 -0.296650 0.572933
v 0.296650 -0.572933 0.572933
v 0.296650 0.572933 0.572933
v 0.728990 -0.316157 0.396783
v 0.781829 0.000000 0.333140
v 0.728990 0.316157 0.316157
v 0.385750 -0.316157 0.728990
v 0.333140 -0.000000 0.781829
v 0.316157 0.316157 0.728990
v 0.316157 -0.728990 0.316157
v 0.324238 0.699032 0.324238
v 0.112590 0.935510 0.168885
v 1.444219 -0.103221 0.126346
v 0.126346 -0.103221 1.444219
v 0.208734 -0.169430 1.260347
v 0.299505 -0.314593 0.930346
v 0.924473 -0.314639 0.283767
v 1.259606 -0.169435 0.193744
vn -0.5576 -0.6079 -0.5653
vn -0.5709 0.5900 -0.5709
vn -0.6548 -0.6896 -0.3094
vn -0.7007 -0.7135 -0.0000
vn -0.7295 0.6840 -0.0000
vn -0.6733 0.6582 -0.3368
vn -0.6709 0.3157 -0.6709
vn -0.7047 0.0362 -0.7086
vn -0.6679 -0.3082 -0.6774
vn -0.0000 -0.7127 -0.7015
vn -0.3103 -0.6871 -0.6570
vn -0.3368 0.6582 -0.6733
vn -0.0000 0.6840 -0.7295
vn -0.9745 0.2243 -0.0000
vn -1.0000 0.0094 -0.0000
vn -0.9345 0.3560 -0.0000
vn -0.8965 -0.1791 -0.4052
vn -0.9357 0.0213 -0.3522
vn -0.8797 0.3362 -0.3362
vn -0.3958 -0.1608 -0.9041
vn -0.3528 0.0184 -0.9355
vn -0.3362 0.3362 -0.8797
vn -0.0000 0.2253 -0.9743
vn -0.0000 0.0082 -1.0000
vn -0.0000 0.3560 -0.9345
vn -0.3362 -0.8797 -0.3362
vn -0.0000 -0.9345 -0.3560
vn -0.3560 -0.9345 -0.0000
vn -0.0000 -1.0000 -0.0000
vn -0.0000 0.8899 -0.4562
vn -0.3651 0.8575 -0.3625
vn -0.0000 1.0000 -0.0000
vn -0.4434 0.8963 -0.0000
vn -0.4667 0.7379 -0.4875
vn 0.4603 0.8878 -0.0000
vn 0.4501 0.8682 0.2091
vn 0.1993 0.8679 0.4550
vn -0.0000 0.8857 0.4643
vn -0.0000 0.9665 0.2568
vn -0.0000 0.8930 0.4500
vn 0.2029 0.8781 0.4334
vn 0.1093 0.9828 0.1488
vn 0.1426 0.9833 0.1130
vn 0.4294 0.8765 0.2178
vn 0.4470 0.8946 -0.0000
vn 0.2604 0.9655 -0.0000
vn 0.5576 -0.6079 -0.5653
vn 0.5709 0.5900 -0.5709
vn 0.6548 -0.6896 -0.3094
vn 0.7007 -0.7135 -0.0000
vn 0.7295 0.6840 -0.0000
vn 0.6733 0.6582 -0.3368
vn 0.6709 0.3157 -0.6709
vn 0.7047 0.0362 -0.7086
vn 0.6679 -0.3082 -0.6774
vn 0.3103 -0.6871 -0.6570
vn 0.3368 0.6582 -0.6733
vn 0.9745 0.2243 -0.0000
vn 1.0000 0.0094 -0.0000
vn 0.9345 0.3560 -0.0000
vn 0.8965 -0.1791 -0.4052
vn 0.9357 0.0213 -0.3522
vn 0.8797 0.3362 -0.3362
vn 0.3958 -0.1608 -0.9041
vn 0.3528 0.0184 -0.9355
vn 0.3362 0.3362 -0.8797
vn 0.3362 -0.8797 -0.3362
vn 0.3560 -0.9345 -0.0000
vn 0.3651 0.8575 -0.3625
vn 0.4434 0.8963 -0.0000
vn 0.4667 0.7379 -0.4875
vn -0.4603 0.8878 -0.0000
vn -0.4501 0.8682 0.2091
vn -0.1993 0.8679 0.4550
vn -0.2029 0.8781 0.4334
vn -0.1093 0.9828 0.1488
vn -0.1426 0.9833 0.1130
vn -0.4294 0.8765 0.2178
vn -0.4470 0.8946 -0.0000
vn -0.2604 0.9655 -0.0000
vn -0.5576 -0.6079 0.5653
vn -0.5709 0.5900 0.5709
vn -0.6548 -0.6896 0.3094
vn -0.6733 0.6582 0.3368
vn -0.6709 0.3157 0.6709
vn -0.7047 0.0362 0.7086
vn -0.6679 -0.3082 0.6774
vn -0.0000 -0.7127 0.7015
vn -0.3103 -0.6871 0.6570
vn -0.3368 0.6582 0.6733
vn -0.0000 0.6840 0.7295
vn -0.8965 -0.1791 0.4052
vn -0.9357 0.0213 0.3522
vn -0.8797 0.3362 0.3362
vn -0.3958 -0.1608 0.9041
vn -0.3528 0.0184 0.9355
vn -0.3362 0.3362 0.8797
vn -0.0000 0.2253 0.9743
vn -0.0000 0.0082 1.0000
vn -0.0000 0.3560 0.9345
vn -0.3362 -0.8797 0.3362
vn -0.0000 -0.9345 0.3560
vn -0.0000 0.8899 0.4562
vn -0.3651 0.8575 0.3625
vn -0.4667 0.7379 0.4875
vn 0.4501 0.8682 -0.2091
vn 0.1993 0.8679 -0.4550
vn -0.0000 0.8857 -0.4643
vn -0.0000 0.9665 -0.2568
vn -0.0000 0.8930 -0.4500
vn 0.2029 0.8781 -0.4334
vn 0.1093 0.9828 -0.1488
vn 0.1426 0.9833 -0.1130
vn 0.4294 0.8765 -0.2178
vn 0.5576 -0.6079 0.5653
vn 0.5709 0.5900 0.5709
vn 0.6548 -0.6896 0.3094
vn 0.6733 0.6582 0.3368
vn 0.6709 0.3157 0.6709
vn 0.7047 0.0362 0.7086
vn 0.6679 -0.3082 0.6774
vn 0.3103 -0.6871 0.6570
vn 0.3368 0.6582 0.6733
vn 0.8965 -0.1791 0.4052
vn 0.9357 0.0213 0.3522
vn 0.8797 0.3362 0.3362
vn 0.3958 -0.1608 0.9041
vn 0.3528 0.0184 0.9355
vn 0.3362 0.3362 0.8797
vn 0.3362 -0.8797 0.3362
vn 0.3651 0.8575 0.3625
vn 0.4667 0.7379 0.4875
vn -0.4501 0.8682 -0.2091
vn -0.1993 0.8679 -0.4550
vn -0.2029 0.8781 -0.4334
vn -0.1093 0.9828 -0.1488
vn -0.1426 0.9833 -0.1130
vn -0.4294 0.8765 -0.2178
vt 0.075493 0.070296
vt 0.183458 0.022983
vt 0.216557 0.125144
vt 0.139680 0.194786
vt 0.295720 0.002127
vt 0.302223 0.099675
vt 0.402670 0.009393
vt 0.386321 0.099962
vt 0.370437 0.159164
vt 0.316258 0.173934
vt 0.252032 0.200658
vt 0.194956 0.241710
vt 0.100504 0.286538
vt 0.159786 0.283960
vt 0.010487 0.303623
vt 0.002127 0.193191
vt 0.227517 0.282570
vt 0.285467 0.260790
vt 0.312837 0.314279
vt 0.262753 0.339232
vt 0.343664 0.234691
vt 0.369298 0.293132
vt 0.185868 0.327423
vt 0.406503 0.204693
vt 0.436693 0.273791
vt 0.262698 0.339267
vt 0.220272 0.371784
vt 0.127757 0.360970
vt 0.175963 0.415308
vt 0.117681 0.500000
vt 0.044024 0.407001
vt 0.730743 0.772407
vt 0.673944 0.828527
vt 0.594144 0.825771
vt 0.636232 0.731994
vt 0.462868 0.143434
vt 0.500545 0.257909
vt 0.472003 0.024130
vt 0.792814 0.516418
vt 0.735003 0.571495
vt 0.723944 0.477295
vt 0.792814 0.436570
vt 0.713159 0.187528
vt 0.713159 0.136229
vt 0.780264 0.153130
vt 0.800278 0.198223
vt 0.540343 0.432316
vt 0.551411 0.382923
vt 0.606517 0.345349
vt 0.621786 0.394463
vt 0.541255 0.299214
vt 0.540343 0.252735
vt 0.557874 0.219349
vt 0.579925 0.274457
vt 0.761615 0.071270
vt 0.713159 0.062195
vt 0.713159 0.002127
vt 0.742254 0.027066
vt 0.311430 0.500000
vt 0.310921 0.449538
vt 0.353242 0.454105
vt 0.356610 0.500000
vt 0.400952 0.448023
vt 0.407530 0.500000
vt 0.457834 0.433555
vt 0.470910 0.500000
vt 0.389835 0.400146
vt 0.431883 0.392487
vt 0.344673 0.409880
vt 0.305570 0.420146
vt 0.271089 0.459491
vt 0.276326 0.428786
vt 0.268895 0.500000
vt 0.311377 0.500000
vt 0.293649 0.390050
vt 0.332164 0.364386
vt 0.382147 0.349989
vt 0.252506 0.406537
vt 0.443301 0.344581
vt 0.227791 0.446659
vt 0.217461 0.500000
vt 0.674958 0.636779
vt 0.732079 0.692571
vt 0.517782 0.378930
vt 0.536089 0.500000
vt 0.865938 0.491647
vt 0.797068 0.530770
vt 0.808127 0.436570
vt 0.865938 0.571495
vt 0.626040 0.198223
vt 0.646054 0.153130
vt 0.719689 0.632525
vt 0.630016 0.621889
vt 0.630016 0.570921
vt 0.693634 0.588806
vt 0.675265 0.505928
vt 0.630016 0.496429
vt 0.630016 0.436570
vt 0.659153 0.461531
vt 0.664704 0.071270
vt 0.684064 0.027066
vt 0.075493 0.929704
vt 0.139680 0.805214
vt 0.216557 0.874856
vt 0.183458 0.977017
vt 0.302223 0.900325
vt 0.295720 0.997873
vt 0.386321 0.900038
vt 0.402670 0.990607
vt 0.316258 0.826066
vt 0.370437 0.840835
vt 0.252032 0.799342
vt 0.194956 0.758290
vt 0.100504 0.713462
vt 0.159786 0.716040
vt 0.010487 0.696377
vt 0.002127 0.806809
vt 0.227517 0.717430
vt 0.262753 0.660767
vt 0.312837 0.685721
vt 0.285467 0.739209
vt 0.369298 0.706868
vt 0.343664 0.765309
vt 0.185868 0.672577
vt 0.406503 0.795307
vt 0.436693 0.726209
vt 0.220272 0.628216
vt 0.262698 0.660733
vt 0.127757 0.639030
vt 0.044024 0.593000
vt 0.175963 0.584691
vt 0.540343 0.694969
vt 0.600918 0.828527
vt 0.541849 0.774802
vt 0.500545 0.742090
vt 0.462868 0.856565
vt 0.472004 0.975870
vt 0.804532 0.081974
vt 0.873402 0.042852
vt 0.862343 0.137051
vt 0.804532 0.002127
vt 0.713159 0.213172
vt 0.800278 0.202477
vt 0.780264 0.247571
vt 0.713159 0.264471
vt 0.540343 0.002127
vt 0.621786 0.039981
vt 0.606517 0.089095
vt 0.551411 0.051520
vt 0.541255 0.135229
vt 0.579925 0.159987
vt 0.557874 0.215095
vt 0.540343 0.181708
vt 0.761615 0.329431
vt 0.713159 0.338505
vt 0.742254 0.373634
vt 0.713159 0.398573
vt 0.353242 0.545895
vt 0.310921 0.550462
vt 0.400952 0.551977
vt 0.457834 0.566445
vt 0.431883 0.607513
vt 0.389835 0.599854
vt 0.344673 0.590120
vt 0.305570 0.579854
vt 0.271089 0.540509
vt 0.276326 0.571213
vt 0.293649 0.609950
vt 0.332164 0.635614
vt 0.382147 0.650011
vt 0.252506 0.593463
vt 0.443301 0.655419
vt 0.227791 0.553341
vt 0.595111 0.636864
vt 0.517782 0.621070
vt 0.736333 0.691856
vt 0.794144 0.636779
vt 0.805203 0.730979
vt 0.736333 0.771703
vt 0.646054 0.247571
vt 0.626040 0.202477
vt 0.540343 0.632525
vt 0.566399 0.588806
vt 0.584767 0.505928
vt 0.600880 0.461531
vt 0.664704 0.329431
vt 0.684064 0.373634
s 1
usemtl Cube.003
f 14/1/14 15/2/15 18/3/18 17/4/17
f 15/2/15 16/5/16 19/6/19 18/3/18
f 16/5/16 5/7/5 6/8/6 19/6/19
f 19/6/19 6/8/6 2/9/2 7/10/7
f 18/3/18 19/6/19 7/10/7 8/11/8
f 17/4/17 18/3/18 8/11/8 9/12/9
f 3/13/3 17/4/17 9/12/9 1/14/1
f 4/15/4 14/16/14 17/4/17 3/13/3
f 20/17/20 21/18/21 24/19/24 23/20/23
f 21/18/21 22/21/22 25/22/25 24/19/24
f 1/14/1 9/12/9 20/17/20 11/23/11
f 9/12/9 8/11/8 21/18/21 20/17/20
f 8/11/8 7/10/7 22/21/22 21/18/21
f 7/10/7 2/9/2 12/24/12 22/21/22
f 22/21/22 12/24/12 13/25/13 25/22/25
f 11/23/11 20/17/20 23/26/23 10/27/10
f 26/28/26 27/29/27 29/30/29 28/31/28
f 1/14/1 11/23/11 26/28/26 3/13/3
f 11/23/11 10/27/10 27/29/27 26/28/26
f 3/13/3 26/28/26 28/31/28 4/15/4
f 30/32/30 31/33/31 33/34/33 32/35/32
f 13/25/13 12/24/12 31/36/31 30/37/30
f 12/24/12 2/9/2 6/8/6 31/36/31
f 31/36/31 6/8/6 5/7/5 33/38/33
f 31/39/31 33/40/33 34/41/34
f 30/42/30 31/39/31 34/41/34
f 23/43/23 39/44/39 42/45/42 20/46/20
f 17/47/17 43/48/43 46/49/46 14/50/14
f 44/51/44 36/52/36 35/53/35 45/54/45
f 41/55/41 42/45/42 39/44/39 40/56/40
f 45/54/45 46/49/46 43/48/43 44/51/44
f 40/56/40 38/57/38 37/58/37 41/55/41
f 58/59/58 61/60/61 62/61/62 59/62/59
f 59/62/59 62/61/62 63/63/63 60/64/60
f 60/64/60 63/63/63 52/65/52 51/66/51
f 63/63/63 53/67/53 48/68/48 52/65/52
f 62/61/62 54/69/54 53/67/53 63/63/63
f 61/60/61 55/70/55 54/69/54 62/61/62
f 49/71/49 47/72/47 55/70/55 61/60/61
f 50/73/50 49/71/49 61/60/61 58/74/58
f 64/75/64 23/20/23 24/19/24 65/76/65
f 65/76/65 24/19/24 25/22/25 66/77/66
f 47/72/47 56/78/56 64/75/64 55/70/55
f 55/70/55 64/75/64 65/76/65 54/69/54
f 54/69/54 65/76/65 66/77/66 53/67/53
f 53/67/53 66/77/66 57/79/57 48/68/48
f 66/77/66 25/22/25 13/25/13 57/79/57
f 56/78/56 10/27/10 23/26/23 64/75/64
f 67/80/67 68/81/68 29/30/29 27/29/27
f 47/72/47 49/71/49 67/80/67 56/78/56
f 56/78/56 67/80/67 27/29/27 10/27/10
f 49/71/49 50/73/50 68/81/68 67/80/67
f 30/32/30 32/35/32 70/82/70 69/83/69
f 13/25/13 30/37/30 69/84/69 57/79/57
f 57/79/57 69/84/69 52/65/52 48/68/48
f 69/84/69 70/85/70 51/66/51 52/65/52
f 69/86/69 71/87/71 70/88/70
f 30/89/30 71/87/71 69/86/69
f 23/43/23 64/90/64 76/91/76 39/44/39
f 61/92/61 58/93/58 80/94/80 77/95/77
f 78/96/78 79/97/79 72/98/72 73/99/73
f 75/100/75 40/56/40 39/44/39 76/91/76
f 79/97/79 78/96/78 77/95/77 80/94/80
f 40/56/40 75/100/75 74/101/74 38/57/38
f 14/102/14 92/103/92 93/104/93 15/105/15
f 15/105/15 93/104/93 94/106/94 16/107/16
f 16/107/16 94/106/94 84/108/84 5/109/5
f 94/106/94 85/110/85 82/111/82 84/108/84
f 93/104/93 86/112/86 85/110/85 94/106/94
f 92/103/92 87/113/87 86/112/86 93/104/93
f 83/114/83 81/115/81 87/113/87 92/103/92
f 4/116/4 83/114/83 92/103/92 14/117/14
f 95/118/95 98/119/98 99/120/99 96/121/96
f 96/121/96 99/120/99 100/122/100 97/123/97
f 81/115/81 89/124/89 95/118/95 87/113/87
f 87/113/87 95/118/95 96/121/96 86/112/86
f 86/112/86 96/121/96 97/123/97 85/110/85
f 85/110/85 97/123/97 90/125/90 82/111/82
f 97/123/97 100/122/100 91/126/91 90/125/90
f 89/124/89 88/127/88 98/128/98 95/118/95
f 101/129/101 28/130/28 29/30/29 102/131/102
f 81/115/81 83/114/83 101/129/101 89/124/89
f 89/124/89 101/129/101 102/131/102 88/127/88
f 83/114/83 4/116/4 28/130/28 101/129/101
f 103/132/103 32/35/32 33/133/33 104/134/104
f 91/126/91 103/135/103 104/136/104 90/125/90
f 90/125/90 104/136/104 84/108/84 82/111/82
f 104/136/104 33/137/33 5/109/5 84/108/84
f 104/138/104 105/139/105 33/140/33
f 103/141/103 105/139/105 104/138/104
f 98/142/98 95/143/95 112/144/112 109/145/109
f 92/146/92 14/147/14 46/148/46 113/149/113
f 114/150/114 45/151/45 35/152/35 106/153/106
f 111/154/111 110/155/110 109/145/109 112/144/112
f 45/151/45 114/150/114 113/149/113 46/148/46
f 110/155/110 111/154/111 107/156/107 108/157/108
f 58/59/58 59/62/59 125/158/125 124/159/124
f 59/62/59 60/64/60 126/160/126 125/158/125
f 60/64/60 51/66/51 118/161/118 126/160/126
f 126/160/126 118/161/118 116/162/116 119/163/119
f 125/158/125 126/160/126 119/163/119 120/164/120
f 124/159/124 125/158/125 120/164/120 121/165/121
f 117/166/117 124/159/124 121/165/121 115/167/115
f 50/73/50 58/74/58 124/159/124 117/166/117
f 127/168/127 128/169/128 99/120/99 98/119/98
f 128/169/128 129/170/129 100/122/100 99/120/99
f 115/167/115 121/165/121 127/168/127 122/171/122
f 121/165/121 120/164/120 128/169/128 127/168/127
f 120/164/120 119/163/119 129/170/129 128/169/128
f 119/163/119 116/162/116 123/172/123 129/170/129
f 129/170/129 123/172/123 91/126/91 100/122/100
f 122/171/122 127/168/127 98/128/98 88/127/88
f 130/173/130 102/131/102 29/30/29 68/81/68
f 115/167/115 122/171/122 130/173/130 117/166/117
f 122/171/122 88/127/88 102/131/102 130/173/130
f 117/166/117 130/173/130 68/81/68 50/73/50
f 103/132/103 131/174/131 70/82/70 32/35/32
f 91/126/91 123/172/123 131/175/131 103/135/103
f 123/172/123 116/162/116 118/161/118 131/175/131
f 131/175/131 118/161/118 51/66/51 70/85/70
f 131/176/131 70/177/70 132/178/132
f 103/179/103 131/176/131 132/178/132
f 98/142/98 109/145/109 136/180/136 127/181/127
f 124/182/124 137/183/137 80/94/80 58/93/58
f 138/184/138 133/185/133 72/98/72 79/97/79
f 135/186/135 136/180/136 109/145/109 110/155/110
f 79/97/79 80/94/80 137/183/137 138/184/138
f 110/155/110 108/157/108 134/187/134 135/186/135
