# Blender 4.1.1
# www.blender.org
mtllib cherry point.mtl
o Cube.005
v -0.216120 0.292341 0.854013
v -0.269596 0.198286 0.295803
v 0.349180 0.344806 0.791017
v 0.295703 0.250751 0.232807
v -0.311066 0.176864 0.592975
v 0.404227 0.243249 0.513265
v 0.012920 0.150854 0.201759
v 0.080241 0.269259 0.904482
v 0.035350 1.813364 -0.076271
v 0.064143 0.050984 0.578241
v -0.239256 0.834102 0.723088
v -0.289515 0.666591 0.835026
v -0.285003 0.753641 0.245562
v -0.349832 0.560505 0.205416
v 0.244295 0.878980 0.669202
v 0.347370 0.725699 0.764053
v 0.198548 0.798519 0.191676
v 0.287054 0.619613 0.134443
v -0.456587 0.600841 0.535478
v -0.320665 0.789114 0.490734
v 0.454126 0.685363 0.433991
v 0.279810 0.844843 0.423819
v -0.044087 0.567725 0.037380
v -0.048685 0.767279 0.162315
v 0.041626 0.718479 0.932090
v 0.007830 0.866678 0.752239
v -0.270934 0.221137 0.754151
v -0.154389 0.153274 0.242931
v 0.361032 0.226726 0.347707
v 0.244486 0.294589 0.858927
v -0.302785 0.165118 0.421682
v 0.392882 0.282745 0.680177
v -0.138892 0.067856 0.594849
v 0.181884 0.184483 0.205457
v -0.091787 0.263380 0.896401
v 0.259372 0.104818 0.550467
v 0.041498 0.053374 0.377025
v 0.078982 0.119300 0.768291
v -0.419173 0.735722 0.509168
v -0.313486 0.770385 0.348887
v -0.328202 0.698750 0.213778
v -0.436128 0.575635 0.361556
v -0.053575 0.706371 0.067704
v 0.093579 0.786459 0.166084
v 0.243008 0.751763 0.150124
v 0.130622 0.589559 0.053495
v 0.387989 0.810633 0.419219
v 0.272018 0.869123 0.564790
v 0.297096 0.846895 0.714721
v 0.433667 0.710570 0.607913
v 0.022392 0.839984 0.860683
v -0.135047 0.853048 0.747593
v -0.274113 0.793882 0.778375
v -0.133083 0.696645 0.915974
v -0.286837 0.817256 0.627067
v -0.403589 0.632865 0.701215
v 0.245369 0.822251 0.286609
v 0.401128 0.653339 0.268254
v -0.187752 0.760350 0.197435
v -0.212050 0.557756 0.091682
v 0.146284 0.879158 0.716242
v 0.209589 0.728448 0.877788
v -0.261478 0.456197 0.862227
v -0.420250 0.384334 0.568478
v 0.064498 0.498793 0.954370
v -0.003991 0.830645 0.616151
v -0.178682 0.789397 0.477085
v -0.034045 0.777785 0.302434
v -0.320767 0.351918 0.243341
v -0.018899 0.352113 0.083841
v 0.140645 0.819033 0.441500
v 0.465849 0.466572 0.469733
v 0.364674 0.514309 0.792450
v 0.305385 0.410030 0.173564
v -0.186425 0.344199 0.136154
v 0.414291 0.437082 0.304341
v 0.231530 0.511182 0.901350
v -0.156267 0.826711 0.622030
v 0.261039 0.162860 0.730894
v -0.184590 0.776895 0.326377
v -0.401558 0.361364 0.395258
v 0.225886 0.101031 0.363947
v -0.109479 0.479533 0.939351
v -0.146812 0.066442 0.405479
v 0.154583 0.375848 0.098153
v 0.446663 0.494017 0.642246
v -0.111658 0.128270 0.772426
v 0.115686 0.804763 0.292915
v 0.144009 0.854579 0.588568
v -0.402047 0.712979 0.351931
v 0.104390 0.726097 0.080932
v 0.370822 0.833756 0.576396
v -0.135616 0.820637 0.847395
v -0.372607 0.764759 0.659242
v 0.341381 0.781975 0.269085
v -0.205732 0.697315 0.115491
v 0.174507 0.849419 0.812836
v -0.369187 0.418299 0.733162
v 0.143665 0.181331 -0.131581
v 0.108011 0.257201 -0.693966
v 0.706792 0.274263 -0.154746
v 0.671138 0.350133 -0.717130
v 0.060868 0.145718 -0.418577
v 0.773411 0.263308 -0.447887
v 0.394697 0.252269 -0.787221
v 0.439582 0.156757 -0.079242
v 0.042199 1.813357 -0.069424
v 0.442331 0.046142 -0.456194
v 0.095535 0.735899 -0.095261
v 0.051449 0.540514 -0.040512
v 0.065034 0.800802 -0.576359
v 0.011234 0.626089 -0.674831
v 0.577227 0.815392 -0.115075
v 0.685887 0.645215 -0.066609
v 0.546726 0.880295 -0.596173
v 0.645671 0.730789 -0.700929
v -0.105046 0.560794 -0.352061
v 0.021941 0.759405 -0.333318
v 0.802166 0.710510 -0.389380
v 0.620108 0.858120 -0.357924
v 0.319986 0.696455 -0.821421
v 0.302184 0.848852 -0.642789
v 0.377134 0.574849 0.079981
v 0.339865 0.768672 -0.048453
v 0.094927 0.141169 -0.250150
v 0.226582 0.235095 -0.753518
v 0.734957 0.295485 -0.612308
v 0.603302 0.201559 -0.108940
v 0.073691 0.186357 -0.585106
v 0.756193 0.250297 -0.277352
v 0.238365 0.048602 -0.442931
v 0.561562 0.290376 -0.767298
v 0.268321 0.146277 -0.095160
v 0.635099 0.114075 -0.459251
v 0.424236 0.107928 -0.648188
v 0.449228 0.054749 -0.253995
v -0.074069 0.698807 -0.335406
v 0.033348 0.784493 -0.473900
v 0.025479 0.756218 -0.624701
v -0.079306 0.589914 -0.524665
v 0.302636 0.819043 -0.751399
v 0.443140 0.872038 -0.628121
v 0.594493 0.850121 -0.648108
v 0.492913 0.719836 -0.792970
v 0.729991 0.831500 -0.368481
v 0.607823 0.838557 -0.216540
v 0.630556 0.773383 -0.079288
v 0.776427 0.681389 -0.216775
v 0.353286 0.711264 0.047512
v 0.198030 0.751013 -0.062320
v 0.061542 0.679480 -0.055882
v 0.204208 0.551467 0.051530
v 0.051116 0.746684 -0.193640
v -0.057611 0.543749 -0.182467
v 0.590054 0.876366 -0.496801
v 0.754732 0.727555 -0.558974
v 0.162890 0.825788 -0.616592
v 0.151558 0.663502 -0.778928
v 0.478280 0.797262 -0.073848
v 0.545563 0.607801 0.037488
v 0.089708 0.333062 -0.076446
v -0.058318 0.346126 -0.383984
v 0.410830 0.359802 0.036381
v 0.333065 0.774735 -0.189432
v 0.163996 0.769807 -0.340921
v 0.313027 0.817374 -0.505495
v 0.050178 0.417178 -0.699961
v 0.355226 0.478121 -0.840659
v 0.482096 0.822303 -0.354006
v 0.824374 0.491796 -0.420294
v 0.713453 0.435998 -0.102105
v 0.673922 0.520114 -0.725619
v 0.187173 0.447743 -0.799431
v 0.778239 0.511213 -0.588747
v 0.578174 0.394635 -0.004200
v 0.181103 0.762752 -0.190715
v 0.629600 0.115225 -0.269794
v 0.162218 0.802936 -0.488580
v -0.034474 0.377091 -0.555316
v 0.606161 0.165100 -0.639486
v 0.238476 0.338575 0.009774
v 0.234897 0.103830 -0.624214
v 0.526871 0.503803 -0.813405
v 0.799822 0.465286 -0.248315
v 0.258335 0.053956 -0.254522
v 0.461340 0.852300 -0.500884
v 0.480224 0.812116 -0.203020
v -0.052169 0.725119 -0.491489
v 0.459022 0.840573 -0.726959
v 0.708031 0.805566 -0.212343
v 0.196840 0.690113 0.023127
v -0.032540 0.683351 -0.181879
v 0.688402 0.847335 -0.521953
v 0.150091 0.789591 -0.714251
v 0.505771 0.741095 0.010419
v -0.012891 0.331165 -0.214884
v -0.958425 0.271232 -0.059276
v -0.926256 0.314471 -0.625314
v -0.390076 0.221734 -0.030756
v -0.357906 0.264972 -0.596795
v -1.022906 0.237215 -0.351124
v -0.303754 0.174583 -0.315037
v -0.643081 0.233115 -0.689370
v -0.683579 0.178683 0.023209
v 0.035350 1.813364 -0.062577
v -0.676690 0.044981 -0.346132
v -0.869253 0.821864 -0.053425
v -0.965264 0.647469 0.005605
v -0.841734 0.858853 -0.537649
v -0.928979 0.696238 -0.632836
v -0.383094 0.779524 -0.029029
v -0.324942 0.591702 0.037736
v -0.355574 0.816513 -0.513253
v -0.288658 0.640471 -0.600705
v -1.084774 0.683842 -0.320523
v -0.914215 0.846153 -0.298431
v -0.169148 0.604099 -0.274577
v -0.310500 0.793575 -0.268137
v -0.601180 0.678622 -0.751179
v -0.595359 0.842711 -0.582383
v -0.652742 0.609318 0.156079
v -0.629356 0.797017 0.015815
v -1.005444 0.236121 -0.180121
v -0.812379 0.259966 -0.671742
v -0.318886 0.203749 -0.483763
v -0.511951 0.179904 0.007858
v -0.986284 0.261874 -0.517253
v -0.338046 0.177996 -0.146631
v -0.873927 0.098180 -0.353277
v -0.474291 0.230521 -0.654777
v -0.850038 0.209349 -0.009107
v -0.473514 0.063308 -0.333185
v -0.662446 0.095897 -0.541608
v -0.684995 0.065590 -0.144854
v -1.021795 0.810893 -0.307239
v -0.885044 0.857912 -0.438194
v -0.886943 0.822070 -0.587574
v -1.038060 0.693780 -0.490881
v -0.593187 0.806266 -0.688928
v -0.454847 0.831662 -0.554896
v -0.312652 0.772054 -0.558756
v -0.430948 0.660892 -0.706833
v -0.210278 0.740217 -0.266517
v -0.339206 0.787431 -0.127918
v -0.345189 0.728321 0.013760
v -0.215861 0.594160 -0.104219
v -0.638886 0.744843 0.115173
v -0.769402 0.813681 -0.011216
v -0.919481 0.778337 -0.015058
v -0.822973 0.627048 0.111733
v -0.901075 0.836365 -0.156113
v -1.057635 0.667471 -0.146459
v -0.323174 0.808978 -0.410000
v -0.196287 0.620469 -0.448641
v -0.737697 0.856296 -0.569090
v -0.775469 0.690897 -0.724121
v -0.486553 0.789047 0.002977
v -0.478452 0.597043 0.129021
v -0.977194 0.434989 -0.016791
v -1.090680 0.462589 -0.337760
v -0.670324 0.390080 0.125962
v -0.622469 0.794802 -0.125273
v -0.773955 0.820933 -0.292386
v -0.604390 0.819102 -0.443390
v -0.941528 0.482927 -0.644357
v -0.620156 0.457510 -0.756777
v -0.452904 0.792972 -0.276276
v -0.199800 0.385001 -0.293055
v -0.347665 0.380162 0.014799
v -0.311999 0.428101 -0.612767
v -0.793332 0.472096 -0.731057
v -0.225190 0.403427 -0.465966
v -0.496772 0.380022 0.100609
v -0.771929 0.820304 -0.141061
v -0.494562 0.078858 -0.145460
v -0.754891 0.843205 -0.440860
v -1.045441 0.474864 -0.507126
v -0.473415 0.107281 -0.517553
v -0.839620 0.409881 0.083405
v -0.848123 0.139915 -0.536356
v -0.450484 0.442237 -0.713853
v -0.244663 0.377253 -0.123322
v -0.869270 0.111492 -0.164263
v -0.452995 0.816912 -0.425711
v -0.470033 0.794011 -0.125911
v -0.980885 0.820196 -0.461426
v -0.439033 0.790516 -0.650124
v -0.251156 0.731297 -0.112298
v -0.793008 0.760978 0.076399
v -0.998595 0.796392 -0.149805
v -0.233446 0.755101 -0.423920
v -0.750829 0.817670 -0.665769
v -0.481212 0.733823 0.092045
v -1.064914 0.448690 -0.164482
v 0.045750 0.799830 0.453826
v -0.023936 0.783355 0.397794
v -0.081515 0.788019 0.468008
v -0.011843 0.804624 0.524019
v 0.388063 0.796270 -0.351556
v 0.320634 0.794452 -0.412524
v 0.261288 0.775349 -0.346341
v 0.328696 0.777296 -0.285355
v -0.570213 0.798177 -0.304927
v -0.634511 0.798243 -0.369214
v -0.698809 0.798177 -0.304927
v -0.634511 0.798243 -0.240639
v 0.028502 1.813357 -0.069424
v 0.054423 1.813364 -0.077088
v 0.061271 1.813357 -0.083935
v 0.054423 1.813364 -0.090782
v 0.047574 1.813357 -0.083935
v 0.016426 1.813364 -0.083681
v 0.023275 1.813357 -0.090529
v 0.016426 1.813364 -0.097376
v 0.009578 1.813357 -0.090529
v 0.009348 1.802908 -0.056612
v 0.009348 1.913131 -0.056612
v 0.009348 1.802908 -0.106671
v 0.009348 1.913131 -0.106671
v 0.059407 1.802908 -0.056612
v 0.059407 1.913131 -0.056612
v 0.059407 1.802908 -0.106671
v 0.059407 1.913131 -0.106671
v 0.003863 1.802575 -0.081641
v 0.002434 1.876260 -0.049698
v 0.003863 1.920850 -0.081641
v 0.002434 1.807427 -0.113585
v 0.034378 1.802575 -0.112156
v 0.034378 1.920850 -0.112156
v 0.066321 1.807427 -0.113585
v 0.064892 1.802575 -0.081641
v 0.064892 1.920850 -0.081641
v 0.066321 1.807427 -0.049698
v 0.034378 1.802575 -0.051127
v 0.034378 1.920850 -0.051127
v 0.002434 1.807427 -0.049698
v 0.002434 1.876260 -0.113585
v 0.066321 1.876260 -0.113585
v 0.066321 1.876260 -0.049698
v -0.009578 1.877021 -0.081641
v 0.034378 1.877021 -0.125598
v 0.078334 1.877021 -0.081641
v 0.034378 1.877021 -0.037685
v 0.034378 1.801877 -0.081641
v 0.034378 1.937048 -0.081641
v 0.034378 1.807394 -0.037685
v 0.078334 1.807394 -0.081641
v 0.034378 1.807394 -0.125598
v -0.009578 1.807394 -0.081641
vn -0.5281 -0.3649 0.7668
vn -0.6434 -0.5818 -0.4975
vn 0.7389 -0.2435 0.6283
vn 0.6121 -0.4635 -0.6407
vn -0.7220 -0.6683 0.1792
vn 0.8545 -0.5195 0.0038
vn -0.0109 -0.7250 -0.6887
vn 0.1394 -0.4565 0.8788
vn -0.0463 0.5423 -0.8389
vn 0.1061 -0.9827 0.1517
vn -0.3026 0.9473 0.1050
vn -0.6371 0.2037 0.7434
vn -0.3463 0.8726 -0.3445
vn -0.7700 -0.0340 -0.6371
vn 0.1450 0.9878 0.0563
vn 0.7358 0.3336 0.5893
vn 0.1006 0.9138 -0.3936
vn 0.6052 0.0964 -0.7902
vn -0.9945 0.0613 0.0854
vn -0.3018 0.9446 -0.1292
vn 0.9599 0.2472 -0.1326
vn 0.0936 0.9804 -0.1736
vn -0.1093 -0.0144 -0.9939
vn -0.1242 0.9302 -0.3453
vn 0.0762 0.3201 0.9443
vn -0.0867 0.9950 0.0490
vn -0.6461 -0.5674 0.5106
vn -0.3471 -0.7129 -0.6093
vn 0.7654 -0.5471 -0.3388
vn 0.4719 -0.3961 0.7877
vn -0.7072 -0.6855 -0.1730
vn 0.8346 -0.4273 0.3477
vn -0.2922 -0.9388 0.1825
vn 0.3270 -0.6489 -0.6870
vn -0.2094 -0.4617 0.8620
vn 0.4872 -0.8679 0.0965
vn 0.0597 -0.9664 -0.2498
vn 0.1352 -0.8381 0.5285
vn -0.7970 0.6036 -0.0216
vn -0.3203 0.9270 -0.1951
vn -0.6603 0.4781 -0.5792
vn -0.9538 0.0014 -0.3004
vn -0.1408 0.5456 -0.8261
vn -0.0574 0.9281 -0.3678
vn 0.4194 0.5818 -0.6969
vn 0.2698 0.0323 -0.9624
vn 0.6468 0.7405 -0.1827
vn 0.1180 0.9877 -0.1021
vn 0.5173 0.7667 0.3802
vn 0.9189 0.3027 0.2529
vn -0.0034 0.7927 0.6096
vn -0.1539 0.9855 0.0716
vn -0.5517 0.6660 0.5021
vn -0.3018 0.2702 0.9143
vn -0.3106 0.9489 -0.0562
vn -0.8810 0.1321 0.4543
vn 0.1000 0.9647 -0.2435
vn 0.8481 0.1723 -0.5010
vn -0.1916 0.9165 -0.3511
vn -0.4743 -0.0387 -0.8795
vn -0.0134 0.9982 0.0586
vn 0.4404 0.3408 0.8306
vn -0.6030 -0.1043 0.7909
vn -0.9452 -0.2955 0.1391
vn 0.1139 -0.0383 0.9928
vn -0.1155 0.9656 -0.2329
vn -0.0300 0.9862 -0.1629
vn -0.1003 0.9920 -0.0764
vn -0.7345 -0.3391 -0.5877
vn -0.0701 -0.3667 -0.9277
vn -0.1861 0.9717 -0.1456
vn 0.9906 -0.1131 -0.0766
vn 0.7698 0.0246 0.6378
vn 0.6376 -0.2105 -0.7410
vn -0.4239 -0.3688 -0.8272
vn 0.8851 -0.1615 -0.4365
vn 0.4652 0.0048 0.8852
vn -0.0601 0.9751 -0.2137
vn 0.4922 -0.7423 0.4548
vn -0.0497 0.9930 -0.1071
vn -0.9141 -0.3303 -0.2351
vn 0.4167 -0.8658 -0.2770
vn -0.2537 -0.0635 0.9652
vn -0.3065 -0.9318 -0.1944
vn 0.2919 -0.3011 -0.9078
vn 0.9555 -0.0358 0.2928
vn -0.2411 -0.8109 0.5333
vn -0.1562 0.9831 -0.0954
vn -0.1662 0.9652 -0.2018
vn -0.7885 0.5389 -0.2964
vn 0.1336 0.5575 -0.8194
vn 0.6394 0.7632 0.0935
vn -0.2701 0.7430 0.6123
vn -0.7322 0.6340 0.2487
vn 0.5912 0.6709 -0.4477
vn -0.4062 0.5051 -0.7615
vn 0.2605 0.7925 0.5514
vn -0.8457 -0.2052 0.4927
vn -0.5211 -0.6048 0.6022
vn -0.6064 -0.4308 -0.6684
vn 0.7311 -0.3948 0.5564
vn 0.6537 -0.2164 -0.7251
vn -0.6895 -0.7224 -0.0515
vn 0.8808 -0.4589 -0.1164
vn 0.0415 -0.4800 -0.8763
vn 0.1414 -0.6966 0.7033
vn 0.7806 0.5980 -0.1819
vn 0.1522 -0.9786 -0.1387
vn -0.3536 0.8599 0.3682
vn -0.6640 -0.0619 0.7451
vn -0.3813 0.9206 -0.0848
vn -0.7520 0.1299 -0.6462
vn 0.0916 0.9327 0.3489
vn 0.7054 0.1690 0.6884
vn 0.0646 0.9924 -0.1050
vn 0.6158 0.3601 -0.7008
vn -0.9980 -0.0112 0.0616
vn -0.3461 0.9268 0.1460
vn 0.9479 0.3180 -0.0182
vn 0.0486 0.9903 0.1302
vn -0.0856 0.2872 -0.9540
vn -0.1646 0.9844 -0.0626
vn 0.0385 0.0173 0.9991
vn -0.1390 0.9322 0.3342
vn -0.6231 -0.7246 0.2943
vn -0.2991 -0.5088 -0.8072
vn 0.8034 -0.3822 -0.4565
vn 0.4698 -0.5974 0.6499
vn -0.6704 -0.6300 -0.3921
vn 0.8450 -0.4793 0.2370
vn -0.2488 -0.9622 -0.1109
vn 0.3785 -0.3928 -0.8381
vn -0.2029 -0.7110 0.6733
vn 0.5286 -0.8366 -0.1441
vn 0.1156 -0.8466 -0.5195
vn 0.1640 -0.9503 0.2647
vn -0.8282 0.5467 0.1234
vn -0.3652 0.9278 0.0758
vn -0.6665 0.6059 -0.4343
vn -0.9452 0.0529 -0.3220
vn -0.1483 0.7665 -0.6249
vn -0.0936 0.9920 -0.0841
vn 0.4002 0.7848 -0.4732
vn 0.2888 0.3376 -0.8959
vn 0.6107 0.7892 0.0644
vn 0.0667 0.9776 0.1997
vn 0.4729 0.6366 0.6092
vn 0.8971 0.2501 0.3644
vn -0.0563 0.5672 0.8217
vn -0.2036 0.9145 0.3497
vn -0.6011 0.4534 0.6581
vn -0.3365 -0.0368 0.9410
vn -0.3539 0.9104 0.2143
vn -0.8971 -0.0527 0.4387
vn 0.0614 0.9966 0.0551
vn 0.8475 0.3551 -0.3945
vn -0.2326 0.9698 -0.0739
vn -0.4508 0.2125 -0.8670
vn -0.0689 0.9352 0.3473
vn 0.4044 0.0889 0.9102
vn -0.6143 -0.3654 0.6994
vn -0.9310 -0.3648 0.0110
vn 0.0924 -0.3342 0.9379
vn -0.1596 0.9852 0.0625
vn -0.0773 0.9875 0.1377
vn -0.1498 0.9639 0.2202
vn -0.7029 -0.1761 -0.6892
vn -0.0302 -0.0693 -0.9971
vn -0.2328 0.9617 0.1444
vn 0.9968 -0.0417 -0.0683
vn 0.7528 -0.1374 0.6438
vn 0.6646 0.0522 -0.7454
vn -0.3868 -0.1185 -0.9145
vn 0.9023 0.0181 -0.4307
vn 0.4424 -0.2446 0.8628
vn -0.1053 0.9908 0.0853
vn 0.5137 -0.8247 0.2365
vn -0.0987 0.9763 0.1928
vn -0.8913 -0.2817 -0.3554
vn 0.4714 -0.7242 -0.5034
vn -0.2711 -0.3646 0.8908
vn -0.2580 -0.8453 -0.4679
vn 0.3290 0.0023 -0.9443
vn 0.9488 -0.0834 0.3048
vn -0.2089 -0.9421 0.2624
vn -0.2045 0.9588 0.1970
vn -0.2113 0.9733 0.0899
vn -0.8058 0.5714 -0.1556
vn 0.1207 0.7864 -0.6058
vn 0.5991 0.7270 0.3354
vn -0.3248 0.5054 0.7994
vn -0.7741 0.4937 0.3964
vn 0.5620 0.8006 -0.2076
vn -0.4093 0.6982 -0.5874
vn 0.2114 0.5976 0.7734
vn -0.8436 -0.3824 0.3769
vn -0.7037 -0.4120 0.5789
vn -0.6329 -0.3108 -0.7091
vn 0.5623 -0.5244 0.6394
vn 0.6379 -0.4246 -0.6425
vn -0.8430 -0.5307 -0.0876
vn 0.7414 -0.6710 -0.0080
vn -0.0034 -0.5366 -0.8438
vn -0.0937 -0.6600 0.7454
vn 0.0553 0.8073 0.5876
vn -0.0806 -0.9936 -0.0787
vn -0.1604 0.9431 0.2912
vn -0.7184 0.1586 0.6773
vn -0.1351 0.9771 -0.1644
vn -0.6382 0.2677 -0.7218
vn 0.2883 0.9046 0.3140
vn 0.6638 0.0357 0.7470
vn 0.3139 0.9389 -0.1412
vn 0.7431 0.1449 -0.6533
vn -0.9691 0.2437 -0.0369
vn -0.1199 0.9904 0.0686
vn 0.9958 0.0683 0.0616
vn 0.2775 0.9566 0.0884
vn 0.0684 0.2317 -0.9704
vn 0.0919 0.9882 -0.1222
vn -0.0435 0.0778 0.9960
vn 0.0691 0.9585 0.2765
vn -0.8082 -0.5254 0.2660
vn -0.3452 -0.4731 -0.8106
vn 0.7156 -0.6019 -0.3543
vn 0.2518 -0.6502 0.7168
vn -0.7702 -0.4703 -0.4308
vn 0.6742 -0.6563 0.3386
vn -0.4655 -0.8802 -0.0923
vn 0.3380 -0.5347 -0.7745
vn -0.4285 -0.5893 0.6849
vn 0.3172 -0.9469 -0.0526
vn -0.0519 -0.8832 -0.4661
vn -0.0963 -0.9420 0.3214
vn -0.6675 0.7444 0.0171
vn -0.1318 0.9913 -0.0051
vn -0.4553 0.7217 -0.5214
vn -0.8704 0.2644 -0.4154
vn 0.0957 0.7350 -0.6713
vn 0.1609 0.9779 -0.1334
vn 0.6222 0.6260 -0.4701
vn 0.4378 0.1907 -0.8786
vn 0.7832 0.6153 0.0898
vn 0.2866 0.9449 0.1582
vn 0.5623 0.5396 0.6267
vn 0.8967 0.0432 0.4405
vn 0.0129 0.6215 0.7833
vn -0.0010 0.9574 0.2887
vn -0.5197 0.6367 0.5697
vn -0.4132 0.1155 0.9033
vn -0.1379 0.9807 0.1384
vn -0.9145 0.2045 0.3492
vn 0.2962 0.9549 0.0181
vn 0.9400 0.1034 -0.3251
vn 0.0221 0.9895 -0.1427
vn -0.3093 0.2574 -0.9155
vn 0.1353 0.9463 0.2936
vn 0.3346 0.0486 0.9411
vn -0.7431 -0.1525 0.6516
vn -0.9906 -0.1206 -0.0651
vn -0.0719 -0.2805 0.9571
vn 0.0881 0.9961 0.0059
vn 0.1727 0.9811 0.0876
vn 0.0773 0.9825 0.1696
vn -0.6637 -0.0444 -0.7467
vn 0.0388 -0.1295 -0.9908
vn 0.0094 0.9969 0.0775
vn 0.9557 -0.2927 0.0325
vn 0.6370 -0.2739 0.7206
vn 0.7166 -0.1660 -0.6774
vn -0.3245 -0.0819 -0.9423
vn 0.9108 -0.2363 -0.3384
vn 0.2937 -0.2866 0.9119
vn 0.1371 0.9903 0.0244
vn 0.2752 -0.9067 0.3195
vn 0.1485 0.9768 0.1540
vn -0.8995 -0.0767 -0.4301
vn 0.3191 -0.8512 -0.4167
vn -0.4271 -0.2225 0.8764
vn -0.4147 -0.7872 -0.4564
vn 0.3977 -0.1462 -0.9058
vn 0.8683 -0.2938 0.3996
vn -0.4543 -0.8439 0.2852
vn 0.0226 0.9914 0.1291
vn 0.0394 0.9987 0.0325
vn -0.6190 0.7424 -0.2562
vn 0.3606 0.6887 -0.6289
vn 0.7320 0.5762 0.3636
vn -0.2559 0.6280 0.7349
vn -0.6519 0.7000 0.2917
vn 0.7615 0.6199 -0.1893
vn -0.1749 0.7361 -0.6539
vn 0.2836 0.5794 0.7641
vn -0.9413 -0.1345 0.3097
vn 0.2169 0.9666 -0.1367
vn -0.1723 0.8641 -0.4729
vn -0.3243 0.9400 -0.1059
vn -0.1066 0.9922 0.0647
vn 0.1129 0.9863 0.1200
vn -0.1587 0.9793 -0.1255
vn -0.4331 0.8901 0.1419
vn -0.1303 0.8970 0.4224
vn 0.4991 0.8645 0.0600
vn 0.0512 0.9918 -0.1175
vn -0.0706 0.9938 0.0860
vn 0.0128 0.9347 0.3553
vn -0.7504 0.6552 -0.0876
vn -0.0321 0.5902 0.8066
vn 0.6710 0.7402 0.0439
vn -0.1105 0.7282 -0.6764
vn -0.8078 0.5795 0.1078
vn 0.1585 0.5681 0.8076
vn 0.8756 0.4808 0.0475
vn 0.1710 0.6816 -0.7114
vn -0.5700 0.8197 0.0569
vn -0.1780 -0.9678 0.1780
vn -0.6101 0.5056 0.6101
vn -0.1780 -0.9678 -0.1780
vn -0.6101 0.5056 -0.6101
vn 0.1780 -0.9678 0.1780
vn 0.6101 0.5056 0.6101
vn 0.1780 -0.9678 -0.1780
vn 0.6101 0.5056 -0.6101
vn -0.2247 -0.9744 -0.0000
vn -0.7004 0.1372 0.7004
vn -0.7191 0.6949 -0.0000
vn -0.5869 -0.5578 -0.5869
vn -0.0000 -0.9744 -0.2247
vn -0.0000 0.6949 -0.7191
vn 0.5869 -0.5578 -0.5869
vn 0.2247 -0.9744 -0.0000
vn 0.7191 0.6949 -0.0000
vn 0.5869 -0.5578 0.5869
vn -0.0000 -0.9744 0.2247
vn -0.0000 0.6949 0.7191
vn -0.5869 -0.5578 0.5869
vn -0.7004 0.1372 -0.7004
vn 0.7004 0.1372 -0.7004
vn 0.7004 0.1372 0.7004
vn -0.9905 0.1373 -0.0000
vn -0.0000 0.1373 -0.9905
vn 0.9905 0.1373 -0.0000
vn -0.0000 0.1373 0.9905
vn -0.0000 -1.0000 -0.0000
vn -0.0000 1.0000 -0.0000
vn -0.0000 -0.5530 0.8332
vn 0.8332 -0.5530 -0.0000
vn -0.0000 -0.5530 -0.8332
vn -0.8332 -0.5530 -0.0000
vt 0.477705 0.439072
vt 0.474962 0.405021
vt 0.515976 0.401220
vt 0.506873 0.444044
vt 0.471835 0.353542
vt 0.514449 0.348457
vt 0.551033 0.334201
vt 0.552186 0.387447
vt 0.030800 0.434738
vt 0.004401 0.378079
vt 0.027499 0.363581
vt 0.055779 0.423666
vt 0.111072 0.380286
vt 0.100385 0.332224
vt 0.140035 0.324134
vt 0.141287 0.388411
vt 0.086446 0.272585
vt 0.127376 0.262451
vt 0.161818 0.257854
vt 0.174210 0.320319
vt 0.174210 0.388744
vt 0.263884 0.138703
vt 0.267412 0.090140
vt 0.308197 0.097244
vt 0.291212 0.158193
vt 0.272529 0.033147
vt 0.315122 0.038794
vt 0.351817 0.052007
vt 0.344432 0.111108
vt 0.325239 0.175705
vt 0.584947 0.726267
vt 0.576931 0.695719
vt 0.611227 0.683189
vt 0.617842 0.702707
vt 0.607226 0.719916
vt 0.601660 0.654989
vt 0.635142 0.646533
vt 0.645585 0.670474
vt 0.660851 0.645579
vt 0.675536 0.660720
vt 0.657796 0.699480
vt 0.689228 0.685623
vt 0.263258 0.247984
vt 0.228244 0.219719
vt 0.261558 0.197794
vt 0.296451 0.221939
vt 0.202738 0.171717
vt 0.235182 0.156333
vt 0.552242 0.735996
vt 0.547783 0.707697
vt 0.549964 0.686354
vt 0.570545 0.670286
vt 0.596009 0.751547
vt 0.625927 0.726368
vt 0.631516 0.742558
vt 0.779237 0.504725
vt 0.782259 0.452846
vt 0.824285 0.459801
vt 0.820670 0.507914
vt 0.400125 0.387611
vt 0.394748 0.334370
vt 0.429680 0.348616
vt 0.434590 0.401372
vt 0.860571 0.478201
vt 0.850241 0.510310
vt 0.087121 0.404400
vt 0.121293 0.432480
vt 0.089937 0.457366
vt 0.155878 0.437922
vt 0.831263 0.596832
vt 0.832489 0.629696
vt 0.787271 0.636548
vt 0.782673 0.602232
vt 0.219638 0.430506
vt 0.213609 0.364784
vt 0.250553 0.371660
vt 0.255110 0.433640
vt 0.218909 0.299923
vt 0.256174 0.307529
vt 0.298687 0.315488
vt 0.291591 0.377717
vt 0.285367 0.425103
vt 0.863056 0.541069
vt 0.825318 0.554804
vt 0.872011 0.577129
vt 0.779607 0.556519
vt 0.061515 0.347313
vt 0.011031 0.302317
vt 0.045593 0.286593
vt 0.192679 0.106168
vt 0.226975 0.094546
vt 0.195849 0.046931
vt 0.230523 0.035983
vt 0.735615 0.554244
vt 0.739396 0.507406
vt 0.735615 0.596234
vt 0.328728 0.233040
vt 0.351817 0.189995
vt 0.310608 0.443611
vt 0.277323 0.469856
vt 0.580686 0.776256
vt 0.565657 0.760002
vt 0.606052 0.774188
vt 0.092603 0.765726
vt 0.103754 0.754027
vt 0.119692 0.759027
vt 0.132392 0.777969
vt 0.113060 0.794600
vt 0.639810 0.766630
vt 0.664663 0.726301
vt 0.670648 0.750435
vt 0.636537 0.709138
vt 0.693410 0.713025
vt 0.691573 0.735481
vt 0.420015 0.274498
vt 0.446922 0.286444
vt 0.433490 0.309321
vt 0.402132 0.296336
vt 0.470358 0.293976
vt 0.470404 0.314121
vt 0.523061 0.274387
vt 0.544912 0.256786
vt 0.563337 0.276584
vt 0.540647 0.296186
vt 0.575530 0.795155
vt 0.547783 0.777939
vt 0.041911 0.250991
vt 0.077747 0.238734
vt 0.010866 0.265265
vt 0.682207 0.773851
vt 0.648560 0.792927
vt 0.706635 0.746945
vt 0.239531 0.007036
vt 0.276288 0.004401
vt 0.695438 0.802258
vt 0.658336 0.823588
vt 0.698036 0.657785
vt 0.714988 0.684037
vt 0.277810 0.256786
vt 0.302122 0.262627
vt 0.301984 0.276362
vt 0.264704 0.269196
vt 0.231180 0.262397
vt 0.324833 0.265234
vt 0.338117 0.282385
vt 0.400486 0.256786
vt 0.382191 0.276556
vt 0.368095 0.286989
vt 0.373389 0.327670
vt 0.339970 0.322584
vt 0.610846 0.800092
vt 0.616566 0.831261
vt 0.113563 0.229840
vt 0.494491 0.286357
vt 0.507756 0.309182
vt 0.717739 0.715443
vt 0.207239 0.256786
vt 0.192679 0.293817
vt 0.313648 0.009498
vt 0.331003 0.386114
vt 0.363914 0.391781
vt 0.340969 0.452298
vt 0.739477 0.368559
vt 0.699883 0.368663
vt 0.697890 0.326917
vt 0.747735 0.339351
vt 0.643525 0.367255
vt 0.640110 0.323798
vt 0.630473 0.284978
vt 0.688810 0.288511
vt 0.387243 0.179255
vt 0.360619 0.122694
vt 0.382135 0.099326
vt 0.410724 0.159714
vt 0.464973 0.111520
vt 0.454194 0.064170
vt 0.494685 0.061401
vt 0.495932 0.123933
vt 0.440748 0.008999
vt 0.482546 0.004401
vt 0.518577 0.009423
vt 0.530445 0.067157
vt 0.530445 0.133746
vt 0.461572 0.595766
vt 0.458942 0.546564
vt 0.500744 0.551393
vt 0.491475 0.613291
vt 0.456937 0.486258
vt 0.500366 0.489535
vt 0.538982 0.497323
vt 0.538982 0.559850
vt 0.527968 0.625385
vt 0.096346 0.712988
vt 0.120024 0.695282
vt 0.136135 0.725231
vt 0.121103 0.737888
vt 0.105189 0.732882
vt 0.157705 0.706809
vt 0.171373 0.738129
vt 0.153994 0.756521
vt 0.177043 0.763710
vt 0.168082 0.783894
vt 0.150667 0.805980
vt 0.827174 0.150858
vt 0.835962 0.181545
vt 0.792396 0.195216
vt 0.781040 0.167138
vt 0.436613 0.667302
vt 0.404822 0.623248
vt 0.435145 0.612292
vt 0.466940 0.650639
vt 0.505179 0.668492
vt 0.082885 0.683787
vt 0.104869 0.669938
vt 0.122176 0.664798
vt 0.139411 0.680509
vt 0.079090 0.733361
vt 0.788440 0.063479
vt 0.760897 0.016894
vt 0.799552 0.004401
vt 0.824720 0.047907
vt 0.688810 0.440839
vt 0.630473 0.441538
vt 0.640155 0.408726
vt 0.697934 0.408455
vt 0.747763 0.395599
vt 0.441180 0.135847
vt 0.476476 0.169922
vt 0.446229 0.200582
vt 0.512888 0.186123
vt 0.483196 0.220948
vt 0.043390 0.653376
vt 0.028823 0.598051
vt 0.067316 0.603442
vt 0.079976 0.655997
vt 0.024642 0.536693
vt 0.063548 0.542650
vt 0.106682 0.542727
vt 0.108743 0.602129
vt 0.108941 0.644547
vt 0.847399 0.037514
vt 0.869803 0.059799
vt 0.848821 0.088041
vt 0.416696 0.218032
vt 0.866017 0.124328
vt 0.811095 0.109921
vt 0.415316 0.078675
vt 0.366148 0.042486
vt 0.399878 0.022393
vt 0.386428 0.557202
vt 0.419087 0.549944
vt 0.382191 0.494602
vt 0.415313 0.488025
vt 0.769126 0.128190
vt 0.752513 0.084285
vt 0.734461 0.166242
vt 0.727881 0.131299
vt 0.726165 0.098590
vt 0.056257 0.726119
vt 0.066517 0.705615
vt 0.063226 0.751379
vt 0.618199 0.117541
vt 0.624116 0.091233
vt 0.643098 0.087249
vt 0.664729 0.104516
vt 0.650132 0.133301
vt 0.075847 0.782958
vt 0.095189 0.808999
vt 0.129730 0.819570
vt 0.111124 0.825031
vt 0.572139 0.409839
vt 0.579972 0.384757
vt 0.600210 0.400970
vt 0.591404 0.430392
vt 0.585447 0.362379
vt 0.603546 0.364721
vt 0.045365 0.690779
vt 0.062959 0.664798
vt 0.037078 0.724686
vt 0.004401 0.728162
vt 0.013271 0.689344
vt 0.591404 0.291634
vt 0.578114 0.265918
vt 0.615740 0.256786
vt 0.075533 0.825881
vt 0.053498 0.798104
vt 0.101950 0.841633
vt 0.420827 0.454414
vt 0.457225 0.452846
vt 0.046427 0.841250
vt 0.021907 0.810731
vt 0.044797 0.475513
vt 0.075399 0.480287
vt 0.065582 0.501100
vt 0.030566 0.495664
vt 0.100650 0.483621
vt 0.103470 0.501529
vt 0.122490 0.477045
vt 0.139102 0.496040
vt 0.146793 0.468445
vt 0.167669 0.486163
vt 0.179334 0.525973
vt 0.147466 0.536875
vt 0.040223 0.762227
vt 0.007401 0.770896
vt 0.579948 0.337099
vt 0.600170 0.326564
vt 0.572139 0.306612
vt 0.129460 0.842380
vt 0.019899 0.466168
vt 0.004401 0.485535
vt 0.495342 0.455737
vt 0.530088 0.462907
vt 0.147884 0.597898
vt 0.135555 0.652171
vt 0.179334 0.587621
vt 0.726165 0.041373
vt 0.465506 0.842067
vt 0.464642 0.799054
vt 0.504554 0.796031
vt 0.493095 0.850914
vt 0.462614 0.739890
vt 0.504157 0.735267
vt 0.537984 0.726866
vt 0.537984 0.788254
vt 0.019815 0.180553
vt 0.004401 0.118148
vt 0.032378 0.108463
vt 0.048906 0.174834
vt 0.113445 0.147712
vt 0.111860 0.098355
vt 0.151532 0.103521
vt 0.140876 0.165519
vt 0.108323 0.037882
vt 0.149608 0.041504
vt 0.182356 0.049693
vt 0.183877 0.112375
vt 0.171202 0.177992
vt 0.272751 0.626014
vt 0.272887 0.576820
vt 0.313065 0.579810
vt 0.300323 0.641887
vt 0.272465 0.514855
vt 0.314318 0.516232
vt 0.348829 0.520115
vt 0.347165 0.584372
vt 0.332416 0.650062
vt 0.601975 0.065125
vt 0.619490 0.034641
vt 0.648505 0.052100
vt 0.636243 0.066948
vt 0.617277 0.070919
vt 0.663462 0.022351
vt 0.689661 0.043876
vt 0.678630 0.071764
vt 0.705590 0.064361
vt 0.703694 0.089388
vt 0.693970 0.120916
vt 0.826073 0.779036
vt 0.836639 0.818863
vt 0.792034 0.829402
vt 0.779018 0.792728
vt 0.236075 0.690930
vt 0.209773 0.650062
vt 0.244234 0.641876
vt 0.271515 0.677631
vt 0.304361 0.690931
vt 0.575966 0.046843
vt 0.593645 0.020308
vt 0.610069 0.004401
vt 0.634016 0.008946
vt 0.590992 0.096178
vt 0.402222 0.853045
vt 0.386401 0.796696
vt 0.423436 0.800577
vt 0.437137 0.854049
vt 0.382191 0.735543
vt 0.419667 0.740003
vt 0.084934 0.164096
vt 0.112046 0.202799
vt 0.074632 0.219279
vt 0.142724 0.221038
vt 0.867542 0.758347
vt 0.875056 0.797157
vt 0.726813 0.604103
vt 0.665034 0.610016
vt 0.668026 0.570413
vt 0.726518 0.565909
vt 0.600785 0.606270
vt 0.604424 0.566344
vt 0.605864 0.523090
vt 0.667868 0.528650
vt 0.714223 0.534828
vt 0.852836 0.671185
vt 0.875056 0.696627
vt 0.850053 0.716069
vt 0.827756 0.675098
vt 0.039873 0.221038
vt 0.809922 0.732212
vt 0.789515 0.685479
vt 0.070437 0.101460
vt 0.026649 0.045672
vt 0.065143 0.039357
vt 0.195234 0.584372
vt 0.231759 0.579792
vt 0.192679 0.520115
vt 0.229631 0.516213
vt 0.767032 0.748313
vt 0.752535 0.704313
vt 0.734012 0.794167
vt 0.727208 0.754048
vt 0.726541 0.720236
vt 0.564178 0.103496
vt 0.566945 0.077962
vt 0.580978 0.123474
vt 0.378193 0.243361
vt 0.378193 0.241078
vt 0.380242 0.241321
vt 0.380244 0.243603
vt 0.606474 0.145408
vt 0.636623 0.158403
vt 0.676995 0.147042
vt 0.659698 0.163456
vt 0.405080 0.677294
vt 0.434269 0.680686
vt 0.422774 0.699687
vt 0.389085 0.695628
vt 0.458861 0.683365
vt 0.460444 0.699900
vt 0.541527 0.072921
vt 0.550110 0.037323
vt 0.545802 0.110218
vt 0.066628 0.005715
vt 0.104545 0.004401
vt 0.031994 0.011562
vt 0.624904 0.182564
vt 0.591119 0.169815
vt 0.658740 0.181110
vt 0.234058 0.479783
vt 0.271609 0.478658
vt 0.200848 0.483408
vt 0.717363 0.101267
vt 0.708732 0.136893
vt 0.547783 0.549963
vt 0.550562 0.524409
vt 0.565709 0.522295
vt 0.564201 0.560301
vt 0.560931 0.596261
vt 0.548034 0.503255
vt 0.564592 0.487377
vt 0.667723 0.004401
vt 0.695459 0.030211
vt 0.561635 0.460282
vt 0.601580 0.452846
vt 0.604871 0.483108
vt 0.563432 0.143977
vt 0.569732 0.190013
vt 0.539246 0.161162
vt 0.140628 0.007596
vt 0.481682 0.678029
vt 0.496796 0.695538
vt 0.570959 0.009367
vt 0.527164 0.687938
vt 0.687931 0.164821
vt 0.556016 0.624044
vt 0.595381 0.636777
vt 0.308252 0.479799
vt 0.668455 0.490499
vt 0.726813 0.510781
vt 0.665807 0.460739
vt 0.730725 0.667846
vt 0.766771 0.645579
vt 0.986946 0.685504
vt 0.967441 0.695252
vt 0.967441 0.353381
vt 0.969518 0.352343
vt 0.273618 0.964495
vt 0.252863 0.971605
vt 0.252863 0.700705
vt 0.254990 0.699732
vt 0.304232 0.958081
vt 0.282420 0.956201
vt 0.301928 0.699732
vt 0.304232 0.700023
vt 0.568300 0.198815
vt 0.569977 0.220001
vt 0.558276 0.238562
vt 0.539246 0.245278
vt 0.539246 0.211941
vt 0.389046 0.232033
vt 0.389046 0.229750
vt 0.391096 0.229993
vt 0.391098 0.232276
vt 0.378193 0.232033
vt 0.378193 0.229750
vt 0.380242 0.229993
vt 0.380244 0.232276
vt 0.991396 0.300942
vt 0.969607 0.298137
vt 0.989193 0.004401
vt 0.991396 0.005184
vt 0.960805 0.323914
vt 0.938777 0.323914
vt 0.941980 0.004938
vt 0.944217 0.004401
vt 0.899907 0.348344
vt 0.878605 0.353660
vt 0.878605 0.004967
vt 0.880874 0.004401
vt 0.244061 0.978564
vt 0.223171 0.971972
vt 0.241904 0.699732
vt 0.244061 0.700635
vt 0.214370 0.993895
vt 0.192679 0.995599
vt 0.192679 0.699985
vt 0.194965 0.699732
vt 0.930564 0.986294
vt 0.908709 0.988844
vt 0.908709 0.687587
vt 0.910909 0.686794
vt 0.958639 0.702333
vt 0.939568 0.692203
vt 0.956608 0.352343
vt 0.958639 0.353422
vt 0.930766 0.677436
vt 0.908709 0.677992
vt 0.908709 0.352343
vt 0.910975 0.352851
vt 0.929975 0.343541
vt 0.908709 0.338078
vt 0.927710 0.004401
vt 0.929975 0.004983
vt 0.357631 0.516728
vt 0.357631 0.497956
vt 0.365172 0.499525
vt 0.365172 0.518083
vt 0.365631 0.546029
vt 0.365201 0.534926
vt 0.369716 0.532146
vt 0.372391 0.545233
vt 0.359901 0.485187
vt 0.365147 0.488615
vt 0.578778 0.230050
vt 0.578778 0.210410
vt 0.586646 0.209890
vt 0.586646 0.229306
vt 0.370322 0.485141
vt 0.372641 0.497890
vt 0.580773 0.198815
vt 0.586355 0.200192
vt 0.365631 0.566230
vt 0.372391 0.565667
vt 0.357631 0.606319
vt 0.357631 0.586701
vt 0.365122 0.585874
vt 0.365122 0.605268
vt 0.591115 0.199200
vt 0.593675 0.210965
vt 0.359935 0.575045
vt 0.365132 0.576202
vt 0.372641 0.516662
vt 0.357631 0.565999
vt 0.357631 0.545565
vt 0.370356 0.575032
vt 0.372642 0.586682
vt 0.359470 0.532377
vt 0.593675 0.230605
vt 0.608775 0.201429
vt 0.614261 0.202024
vt 0.612055 0.209028
vt 0.605831 0.206764
vt 0.618830 0.205112
vt 0.618089 0.211254
vt 0.615055 0.216571
vt 0.609660 0.215994
vt 0.605001 0.212888
vt 0.369336 0.242800
vt 0.362946 0.244251
vt 0.360619 0.236247
vt 0.369391 0.236382
vt 0.365056 0.478658
vt 0.363644 0.526885
vt 0.363013 0.229750
vt 0.369391 0.230905
vt 0.615310 0.218538
vt 0.607992 0.218939
vt 0.602477 0.213838
vt 0.586355 0.231283
vt 0.591115 0.232562
vt 0.359935 0.608370
vt 0.365132 0.607257
vt 0.607294 0.199214
vt 0.614620 0.198815
vt 0.580773 0.232177
vt 0.602477 0.205643
vt 0.372642 0.606300
s 1
usemtl Cube.005
f 2/1/2 69/2/69 75/3/75 28/4/28
f 69/2/69 14/5/14 60/6/60 75/3/75
f 75/3/75 60/6/60 23/7/23 70/8/70
f 28/9/28 75/10/75 70/11/70 7/12/7
f 4/13/4 74/14/74 76/15/76 29/16/29
f 74/14/74 18/17/18 58/18/58 76/15/76
f 76/15/76 58/18/58 21/19/21 72/20/72
f 29/16/29 76/15/76 72/20/72 6/21/6
f 3/22/3 73/23/73 77/24/77 30/25/30
f 73/23/73 16/26/16 62/27/62 77/24/77
f 77/24/77 62/27/62 25/28/25 65/29/65
f 30/25/30 77/24/77 65/29/65 8/30/8
f 68/31/68 80/32/80 67/33/67 297/34/297 296/35/296
f 67/33/67 20/36/20 55/37/55 78/38/78
f 78/38/78 55/37/55 11/39/11 52/40/52
f 66/41/66 78/38/78 52/40/52 26/42/26
f 10/43/10 36/44/36 79/45/79 38/46/38
f 36/44/36 6/47/6 32/48/32 79/45/79
f 79/45/79 32/48/32 3/22/3 30/25/30
f 38/46/38 79/45/79 30/25/30 8/30/8
f 24/49/24 59/50/59 80/32/80 68/31/68
f 59/50/59 13/51/13 40/52/40 80/32/80
f 80/32/80 40/52/40 20/36/20 67/33/67
f 88/53/88 68/31/68 296/35/296 295/54/295 71/55/71
f 5/56/5 64/57/64 81/58/81 31/59/31
f 64/60/64 19/61/19 42/62/42 81/63/81
f 81/63/81 42/62/42 14/5/14 69/2/69
f 31/59/31 81/58/81 69/64/69 2/65/2
f 7/12/7 34/66/34 82/67/82 37/68/37
f 34/66/34 4/13/4 29/16/29 82/67/82
f 82/67/82 29/16/29 6/21/6 36/69/36
f 37/70/37 82/71/82 36/72/36 10/73/10
f 8/74/8 65/75/65 83/76/83 35/77/35
f 65/75/65 25/78/25 54/79/54 83/76/83
f 83/76/83 54/79/54 12/80/12 63/81/63
f 35/77/35 83/76/83 63/81/63 1/82/1
f 2/65/2 28/83/28 84/84/84 31/59/31
f 28/83/28 7/85/7 37/70/37 84/84/84
f 84/84/84 37/70/37 10/73/10 33/86/33
f 31/59/31 84/84/84 33/86/33 5/56/5
f 7/12/7 70/11/70 85/87/85 34/66/34
f 70/11/70 23/88/23 46/89/46 85/87/85
f 85/87/85 46/89/46 18/17/18 74/14/74
f 34/66/34 85/87/85 74/14/74 4/13/4
f 6/47/6 72/90/72 86/91/86 32/48/32
f 72/90/72 21/92/21 50/93/50 86/91/86
f 86/91/86 50/93/50 16/26/16 73/23/73
f 32/48/32 86/91/86 73/23/73 3/22/3
f 5/56/5 33/86/33 87/94/87 27/95/27
f 33/86/33 10/73/10 38/96/38 87/94/87
f 87/97/87 38/46/38 8/30/8 35/98/35
f 27/99/27 87/100/87 35/77/35 1/82/1
f 17/101/17 44/102/44 88/53/88 57/103/57
f 44/102/44 24/49/24 68/31/68 88/53/88
f 169/104/169 299/105/299 302/106/302 164/107/164 187/108/187
f 57/103/57 88/53/88 71/55/71 22/109/22
f 22/109/22 71/55/71 89/110/89 48/111/48
f 298/112/298 297/34/297 67/33/67 78/38/78 66/41/66
f 89/110/89 66/41/66 26/42/26 61/113/61
f 48/111/48 89/110/89 61/113/61 15/114/15
f 20/115/20 40/116/40 90/117/90 39/118/39
f 40/116/40 13/119/13 41/120/41 90/117/90
f 90/117/90 41/120/41 14/5/14 42/62/42
f 39/118/39 90/117/90 42/62/42 19/61/19
f 24/121/24 44/122/44 91/123/91 43/124/43
f 44/102/44 17/101/17 45/125/45 91/126/91
f 91/127/91 45/128/45 18/17/18 46/89/46
f 43/129/43 91/127/91 46/89/46 23/88/23
f 22/109/22 48/111/48 92/130/92 47/131/47
f 48/111/48 15/114/15 49/132/49 92/130/92
f 92/133/92 49/134/49 16/26/16 50/93/50
f 47/131/47 92/130/92 50/135/50 21/136/21
f 26/42/26 52/40/52 93/137/93 51/138/51
f 52/139/52 11/140/11 53/141/53 93/142/93
f 93/142/93 53/141/53 12/80/12 54/79/54
f 51/143/51 93/142/93 54/79/54 25/78/25
f 11/140/11 55/144/55 94/145/94 53/141/53
f 55/146/55 20/115/20 39/118/39 94/147/94
f 94/145/94 39/148/39 19/149/19 56/150/56
f 53/141/53 94/145/94 56/150/56 12/80/12
f 17/101/17 57/103/57 95/151/95 45/125/45
f 57/103/57 22/109/22 47/131/47 95/151/95
f 95/151/95 47/131/47 21/136/21 58/152/58
f 45/128/45 95/153/95 58/18/58 18/17/18
f 13/119/13 59/154/59 96/155/96 41/120/41
f 59/154/59 24/121/24 43/124/43 96/155/96
f 96/155/96 43/124/43 23/7/23 60/6/60
f 41/120/41 96/155/96 60/6/60 14/5/14
f 15/114/15 61/113/61 97/156/97 49/132/49
f 61/113/61 26/42/26 51/138/51 97/156/97
f 97/157/97 51/143/51 25/78/25 62/158/62
f 49/134/49 97/159/97 62/27/62 16/26/16
f 1/82/1 63/81/63 98/160/98 27/99/27
f 63/81/63 12/80/12 56/150/56 98/160/98
f 98/160/98 56/150/56 19/149/19 64/161/64
f 27/99/27 98/160/98 64/161/64 5/162/5
f 100/163/100 167/164/167 173/165/173 126/166/126
f 167/164/167 112/167/112 158/168/158 173/165/173
f 173/165/173 158/168/158 121/169/121 168/170/168
f 126/171/126 173/172/173 168/173/168 105/174/105
f 102/175/102 172/176/172 174/177/174 127/178/127
f 172/176/172 116/179/116 156/180/156 174/177/174
f 174/177/174 156/180/156 119/181/119 170/182/170
f 127/178/127 174/177/174 170/182/170 104/183/104
f 101/184/101 171/185/171 175/186/175 128/187/128
f 171/185/171 114/188/114 160/189/160 175/186/175
f 175/186/175 160/189/160 123/190/123 163/191/163
f 128/187/128 175/186/175 163/191/163 106/192/106
f 166/193/166 178/194/178 165/195/165 301/196/301 300/197/300
f 165/195/165 118/198/118 153/199/153 176/200/176
f 176/200/176 153/199/153 109/201/109 150/202/150
f 164/107/164 176/200/176 150/202/150 124/203/124
f 108/204/108 134/205/134 177/206/177 136/207/136
f 134/208/134 104/209/104 130/210/130 177/211/177
f 177/211/177 130/210/130 101/184/101 128/187/128
f 136/212/136 177/211/177 128/187/128 106/192/106
f 122/213/122 157/214/157 178/194/178 166/193/166
f 157/214/157 111/215/111 138/216/138 178/194/178
f 178/194/178 138/216/138 118/198/118 165/195/165
f 186/217/186 166/193/166 300/197/300 299/105/299 169/104/169
f 103/218/103 162/219/162 179/220/179 129/221/129
f 162/222/162 117/223/117 140/224/140 179/225/179
f 179/225/179 140/224/140 112/167/112 167/164/167
f 129/226/129 179/225/179 167/164/167 100/163/100
f 105/174/105 132/227/132 180/228/180 135/229/135
f 132/227/132 102/175/102 127/178/127 180/228/180
f 180/228/180 127/178/127 104/183/104 134/230/134
f 135/229/135 180/228/180 134/230/134 108/231/108
f 106/232/106 163/233/163 181/234/181 133/235/133
f 163/233/163 123/236/123 152/237/152 181/234/181
f 181/234/181 152/237/152 110/238/110 161/239/161
f 133/235/133 181/234/181 161/239/161 99/240/99
f 100/241/100 126/242/126 182/243/182 129/221/129
f 126/171/126 105/174/105 135/229/135 182/244/182
f 182/243/182 135/245/135 108/204/108 131/246/131
f 129/221/129 182/243/182 131/246/131 103/218/103
f 105/174/105 168/173/168 183/247/183 132/227/132
f 168/173/168 121/248/121 144/249/144 183/247/183
f 183/247/183 144/249/144 116/179/116 172/176/172
f 132/227/132 183/247/183 172/176/172 102/175/102
f 104/209/104 170/250/170 184/251/184 130/210/130
f 170/250/170 119/252/119 148/253/148 184/251/184
f 184/251/184 148/253/148 114/188/114 171/185/171
f 130/210/130 184/251/184 171/185/171 101/184/101
f 103/218/103 131/246/131 185/254/185 125/255/125
f 131/246/131 108/204/108 136/207/136 185/254/185
f 185/254/185 136/207/136 106/256/106 133/257/133
f 125/255/125 185/254/185 133/257/133 99/258/99
f 115/259/115 142/260/142 186/217/186 155/261/155
f 142/260/142 122/213/122 166/193/166 186/217/186
f 267/262/267 303/263/303 306/264/306 262/265/262 285/266/285
f 155/261/155 186/217/186 169/104/169 120/267/120
f 120/267/120 169/104/169 187/108/187 146/268/146
f 302/106/302 301/196/301 165/195/165 176/200/176 164/107/164
f 187/108/187 164/107/164 124/203/124 159/269/159
f 146/268/146 187/108/187 159/269/159 113/270/113
f 118/271/118 138/272/138 188/273/188 137/274/137
f 138/272/138 111/275/111 139/276/139 188/273/188
f 188/273/188 139/276/139 112/167/112 140/224/140
f 137/274/137 188/273/188 140/224/140 117/223/117
f 122/213/122 142/260/142 189/277/189 141/278/141
f 142/260/142 115/259/115 143/279/143 189/277/189
f 189/277/189 143/279/143 116/280/116 144/281/144
f 141/282/141 189/283/189 144/284/144 121/169/121
f 120/267/120 146/268/146 190/285/190 145/286/145
f 146/268/146 113/270/113 147/287/147 190/285/190
f 190/288/190 147/289/147 114/188/114 148/253/148
f 145/286/145 190/285/190 148/290/148 119/291/119
f 124/292/124 150/293/150 191/294/191 149/295/149
f 150/293/150 109/296/109 151/297/151 191/294/191
f 191/294/191 151/297/151 110/238/110 152/237/152
f 149/295/149 191/294/191 152/237/152 123/236/123
f 109/296/109 153/298/153 192/299/192 151/297/151
f 153/298/153 118/300/118 137/301/137 192/299/192
f 192/299/192 137/301/137 117/302/117 154/303/154
f 151/297/151 192/299/192 154/303/154 110/238/110
f 115/259/115 155/261/155 193/304/193 143/279/143
f 155/261/155 120/267/120 145/286/145 193/304/193
f 193/304/193 145/286/145 119/291/119 156/305/156
f 143/279/143 193/304/193 156/305/156 116/280/116
f 111/275/111 157/306/157 194/307/194 139/276/139
f 157/306/157 122/308/122 141/282/141 194/307/194
f 194/307/194 141/282/141 121/169/121 158/168/158
f 139/276/139 194/307/194 158/168/158 112/167/112
f 113/270/113 159/269/159 195/309/195 147/287/147
f 159/310/159 124/292/124 149/295/149 195/311/195
f 195/312/195 149/313/149 123/190/123 160/189/160
f 147/289/147 195/312/195 160/189/160 114/188/114
f 99/240/99 161/239/161 196/314/196 125/315/125
f 161/239/161 110/238/110 154/303/154 196/314/196
f 196/314/196 154/303/154 117/302/117 162/316/162
f 125/255/125 196/317/196 162/219/162 103/218/103
f 198/318/198 265/319/265 271/320/271 224/321/224
f 265/319/265 210/322/210 256/323/256 271/320/271
f 271/320/271 256/323/256 219/324/219 266/325/266
f 224/326/224 271/327/271 266/328/266 203/329/203
f 200/330/200 270/331/270 272/332/272 225/333/225
f 270/331/270 214/334/214 254/335/254 272/332/272
f 272/332/272 254/335/254 217/336/217 268/337/268
f 225/333/225 272/332/272 268/337/268 202/338/202
f 199/339/199 269/340/269 273/341/273 226/342/226
f 269/340/269 212/343/212 258/344/258 273/341/273
f 273/341/273 258/344/258 221/345/221 261/346/261
f 226/342/226 273/341/273 261/346/261 204/347/204
f 264/348/264 276/349/276 263/350/263 305/351/305 304/352/304
f 263/350/263 216/353/216 251/354/251 274/355/274
f 274/355/274 251/354/251 207/356/207 248/357/248
f 262/265/262 274/355/274 248/357/248 222/358/222
f 206/359/206 232/360/232 275/361/275 234/362/234
f 232/363/232 202/364/202 228/365/228 275/366/275
f 275/366/275 228/365/228 199/339/199 226/342/226
f 234/367/234 275/366/275 226/342/226 204/347/204
f 220/368/220 255/369/255 276/349/276 264/348/264
f 255/369/255 209/370/209 236/371/236 276/349/276
f 276/349/276 236/371/236 216/353/216 263/350/263
f 284/372/284 264/348/264 304/352/304 303/263/303 267/262/267
f 201/373/201 260/374/260 277/375/277 227/376/227
f 260/374/260 215/377/215 238/378/238 277/375/277
f 277/375/277 238/378/238 210/322/210 265/319/265
f 227/376/227 277/375/277 265/319/265 198/318/198
f 203/329/203 230/379/230 278/380/278 233/381/233
f 230/379/230 200/330/200 225/333/225 278/380/278
f 278/380/278 225/333/225 202/338/202 232/382/232
f 233/383/233 278/384/278 232/360/232 206/359/206
f 204/385/204 261/386/261 279/387/279 231/388/231
f 261/386/261 221/389/221 250/390/250 279/387/279
f 279/387/279 250/390/250 208/391/208 259/392/259
f 231/388/231 279/387/279 259/392/259 197/393/197
f 198/394/198 224/395/224 280/396/280 227/397/227
f 224/326/224 203/329/203 233/381/233 280/398/280
f 280/396/280 233/383/233 206/359/206 229/399/229
f 227/397/227 280/396/280 229/399/229 201/400/201
f 203/329/203 266/328/266 281/401/281 230/379/230
f 266/328/266 219/402/219 242/403/242 281/401/281
f 281/401/281 242/403/242 214/334/214 270/331/270
f 230/379/230 281/401/281 270/331/270 200/330/200
f 202/364/202 268/404/268 282/405/282 228/365/228
f 268/404/268 217/406/217 246/407/246 282/405/282
f 282/405/282 246/407/246 212/343/212 269/340/269
f 228/365/228 282/405/282 269/340/269 199/339/199
f 201/400/201 229/399/229 283/408/283 223/409/223
f 229/399/229 206/359/206 234/362/234 283/408/283
f 283/408/283 234/362/234 204/410/204 231/411/231
f 223/409/223 283/408/283 231/411/231 197/412/197
f 213/413/213 240/414/240 284/372/284 253/415/253
f 240/414/240 220/368/220 264/348/264 284/372/284
f 107/416/107 9/417/9 307/418/307 205/419/205
f 253/415/253 284/372/284 267/262/267 218/420/218
f 218/420/218 267/262/267 285/266/285 244/421/244
f 306/264/306 305/351/305 263/350/263 274/355/274 262/265/262
f 285/266/285 262/265/262 222/358/222 257/422/257
f 244/421/244 285/266/285 257/422/257 211/423/211
f 216/424/216 236/425/236 286/426/286 235/427/235
f 236/425/236 209/428/209 237/429/237 286/426/286
f 286/426/286 237/429/237 210/322/210 238/378/238
f 235/427/235 286/426/286 238/378/238 215/377/215
f 220/368/220 240/414/240 287/430/287 239/431/239
f 240/414/240 213/413/213 241/432/241 287/430/287
f 287/433/287 241/434/241 214/334/214 242/403/242
f 239/435/239 287/433/287 242/403/242 219/402/219
f 218/420/218 244/421/244 288/436/288 243/437/243
f 244/421/244 211/423/211 245/438/245 288/436/288
f 288/439/288 245/440/245 212/343/212 246/407/246
f 243/441/243 288/439/288 246/407/246 217/406/217
f 222/358/222 248/357/248 289/442/289 247/443/247
f 248/444/248 207/445/207 249/446/249 289/447/289
f 289/447/289 249/446/249 208/391/208 250/390/250
f 247/448/247 289/447/289 250/390/250 221/389/221
f 207/445/207 251/449/251 290/450/290 249/446/249
f 251/354/251 216/353/216 235/451/235 290/452/290
f 290/450/290 235/453/235 215/454/215 252/455/252
f 249/446/249 290/450/290 252/455/252 208/391/208
f 213/413/213 253/415/253 291/456/291 241/432/241
f 253/415/253 218/420/218 243/437/243 291/456/291
f 291/456/291 243/437/243 217/457/217 254/458/254
f 241/434/241 291/459/291 254/335/254 214/334/214
f 209/428/209 255/460/255 292/461/292 237/429/237
f 255/369/255 220/368/220 239/431/239 292/462/292
f 292/461/292 239/463/239 219/324/219 256/323/256
f 237/429/237 292/461/292 256/323/256 210/322/210
f 211/423/211 257/422/257 293/464/293 245/438/245
f 257/422/257 222/358/222 247/443/247 293/464/293
f 293/465/293 247/448/247 221/389/221 258/466/258
f 245/440/245 293/467/293 258/344/258 212/343/212
f 197/393/197 259/392/259 294/468/294 223/469/223
f 259/392/259 208/391/208 252/455/252 294/468/294
f 294/468/294 252/455/252 215/454/215 260/470/260
f 223/409/223 294/471/294 260/472/260 201/400/201
f 303/473/303 304/474/304 314/475/314 313/476/313
f 296/477/296 297/478/297 307/479/307 9/480/9
f 299/481/299 300/482/300 310/483/310 309/484/309
f 71/485/71 295/486/295 298/487/298 66/488/66 89/489/89
f 309/490/309 310/491/310 311/492/311 308/493/308
f 313/494/313 314/495/314 315/496/315 312/497/312
f 300/498/300 301/499/301 311/500/311 310/501/310
f 297/502/297 298/503/298 205/504/205 307/505/307
f 304/506/304 305/507/305 315/508/315 314/509/314
f 298/510/298 295/511/295 107/512/107 205/513/205
f 301/514/301 302/515/302 308/516/308 311/517/311
f 302/518/302 299/519/299 309/520/309 308/521/308
f 305/522/305 306/523/306 312/524/312 315/525/315
f 295/526/295 296/527/296 9/528/9 107/529/107
f 306/530/306 303/531/303 313/532/313 312/533/312
f 349/534/349 340/535/340 337/536/337 327/537/327
f 325/538/325 317/539/317 326/540/326 340/541/340
f 340/535/340 326/542/326 319/543/319 337/536/337
f 348/544/348 341/545/341 338/546/338 330/547/330
f 337/536/337 319/543/319 329/548/329 341/549/341
f 341/545/341 329/550/329 323/551/323 338/546/338
f 336/552/336 325/538/325 340/541/340 349/553/349
f 347/554/347 342/555/342 339/556/339 333/557/333
f 338/546/338 323/551/323 332/558/332 342/559/342
f 342/555/342 332/560/332 321/561/321 339/556/339
f 327/537/327 337/536/337 341/549/341 348/562/348
f 346/563/346 343/564/343 325/538/325 336/552/336
f 339/556/339 321/561/321 335/565/335 343/566/343
f 343/564/343 335/567/335 317/539/317 325/538/325
f 330/547/330 338/546/338 342/559/342 347/568/347
f 318/569/318 328/570/328 344/571/344 324/572/324
f 328/570/328 322/573/322 331/574/331 344/571/344
f 344/571/344 331/574/331 320/575/320 334/576/334
f 324/572/324 344/571/344 334/576/334 316/577/316
f 323/578/323 329/579/329 345/580/345 332/581/332
f 329/548/329 319/543/319 326/542/326 345/582/345
f 345/583/345 326/540/326 317/539/317 335/567/335
f 332/581/332 345/580/345 335/584/335 321/585/321
f 320/575/320 333/586/333 346/587/346 334/576/334
f 334/576/334 346/587/346 336/588/336 316/577/316
f 322/589/322 330/547/330 347/568/347 331/590/331
f 331/591/331 347/554/347 333/557/333 320/592/320
f 318/569/318 327/593/327 348/594/348 328/570/328
f 328/595/328 348/544/348 330/547/330 322/589/322
f 316/577/316 336/588/336 349/596/349 324/572/324
f 324/572/324 349/596/349 327/593/327 318/569/318
f 333/557/333 339/556/339 343/566/343 346/597/346
