# Blender 4.1.1
# www.blender.org
mtllib Chilli pepper fire pickup.mtl
o Cube.001
v 0.060112 0.035951 -0.115331
v 0.060112 -0.067579 -0.082948
v -0.049211 0.035951 -0.115331
v -0.049211 -0.067579 -0.082948
v 0.040562 0.368534 0.721455
v 0.040562 0.422959 0.660986
v -0.042544 0.422959 0.660986
v -0.042544 0.368534 0.721455
v -0.091004 0.212961 0.684874
v 0.091609 0.210814 0.391050
v 0.091609 0.060270 0.467553
v -0.091004 0.361585 0.566419
v 0.105664 0.212961 0.684874
v -0.080012 0.210814 0.391050
v -0.080012 0.060270 0.467553
v 0.105664 0.361585 0.566419
v -0.023444 0.568965 0.759397
v -0.023444 0.577665 0.747541
v -0.038149 0.577665 0.747541
v -0.038149 0.568965 0.759397
v 0.027465 0.020742 -0.870526
v 0.041797 0.021741 -0.672073
v 0.027465 -0.023070 -0.870486
v 0.041797 -0.049574 -0.666785
v -0.016565 0.020742 -0.870526
v -0.030896 0.021741 -0.672073
v -0.016565 -0.023070 -0.870486
v -0.030896 -0.049574 -0.666785
v 0.005450 -0.086991 -0.076876
v 0.005450 0.055363 -0.121403
v -0.069709 -0.015814 -0.099139
v 0.080610 -0.015814 -0.099139
v 0.056145 0.395747 0.691220
v -0.000991 0.433164 0.649648
v -0.000991 0.358330 0.732792
v -0.058126 0.395747 0.691220
v -0.066338 0.389245 0.612597
v 0.007330 0.185094 0.707084
v -0.093391 0.138772 0.615222
v 0.123788 0.135542 0.429302
v 0.106415 0.138772 0.615221
v 0.005798 0.239041 0.376706
v -0.127879 0.287273 0.625647
v 0.005798 0.032043 0.481897
v 0.079856 0.389245 0.612597
v 0.007330 0.389452 0.544209
v -0.112192 0.135542 0.429302
v 0.142539 0.287273 0.625646
v 0.106415 0.300906 0.508838
v 0.079856 0.285051 0.708464
v 0.074720 0.110466 0.172624
v -0.063733 0.110466 0.172624
v 0.074720 -0.017301 0.224049
v -0.093391 0.300906 0.508838
v -0.063733 -0.017301 0.224049
v -0.066338 0.285051 0.708464
v -0.022441 0.576647 0.754962
v -0.031593 0.582062 0.747583
v -0.031593 0.571232 0.762341
v -0.040746 0.576647 0.754962
v -0.042350 0.511169 0.724186
v -0.042350 0.488357 0.754255
v -0.004452 0.511169 0.724186
v -0.004452 0.488357 0.754255
v 0.035516 0.025665 -0.816899
v 0.031859 -0.000762 -0.878914
v 0.035516 -0.033937 -0.816174
v 0.055427 -0.013916 -0.669429
v -0.024615 -0.033937 -0.816174
v -0.020959 -0.000762 -0.878914
v -0.024615 0.025665 -0.816899
v -0.044526 -0.013916 -0.669429
v 0.005450 0.035112 -0.673064
v 0.005450 0.025536 -0.878934
v 0.005450 -0.062945 -0.665794
v 0.005450 -0.027061 -0.878894
v 0.049336 0.014595 -0.419847
v 0.049336 -0.070159 -0.403416
v -0.038435 0.014595 -0.419847
v -0.038435 -0.070159 -0.403416
v 0.006759 0.265515 0.726439
v 0.143878 0.219839 0.562030
v 0.005450 0.030486 -0.422927
v 0.005450 -0.086050 -0.400336
v -0.054892 -0.027782 -0.411631
v -0.093750 0.337148 0.660530
v 0.100680 0.046583 0.198336
v 0.005450 0.000081 -0.896558
v -0.049722 0.500442 0.739525
v 0.005494 0.134422 0.162981
v -0.089692 0.046583 0.198336
v 0.005494 -0.041257 0.233691
v 0.006759 0.408781 0.594622
v 0.006512 0.108372 0.635168
v -0.130854 0.219839 0.562030
v 0.006512 0.331306 0.488892
v -0.033265 0.583640 0.758094
v -0.023563 0.516186 0.718769
v -0.023563 0.484697 0.760280
v 0.002595 0.500442 0.739525
v 0.107268 0.337148 0.660530
v 0.046728 -0.004096 -0.817365
v -0.035827 -0.004096 -0.817365
v 0.005450 0.036823 -0.817863
v 0.005450 -0.045016 -0.816868
v 0.065793 -0.027782 -0.411631
v -0.043602 0.398547 0.644111
v 0.049370 0.398547 0.644111
v 0.049370 0.334348 0.707640
v -0.043602 0.334348 0.707640
v 0.002884 0.322310 0.719551
v -0.061034 0.366447 0.675875
v 0.002884 0.410584 0.632199
v 0.066802 0.366447 0.675875
vn 0.7163 0.6831 -0.1423
vn 0.6854 -0.7273 0.0347
vn -0.7163 0.6831 -0.1422
vn -0.6855 -0.7273 0.0348
vn 0.6248 -0.0736 0.7773
vn 0.6909 0.5898 -0.4179
vn -0.6976 0.4213 -0.5795
vn -0.6695 -0.2272 0.7072
vn -0.6567 -0.3032 0.6905
vn 0.7128 0.5663 -0.4138
vn 0.6858 -0.6892 0.2339
vn -0.6938 0.6426 -0.3252
vn 0.6595 -0.3038 0.6876
vn -0.7136 0.5682 -0.4098
vn -0.6866 -0.6873 0.2370
vn 0.6958 0.6410 -0.3241
vn 0.5894 0.1767 0.7883
vn 0.6504 0.6058 -0.4583
vn -0.6735 0.4962 -0.5479
vn -0.6431 0.0629 0.7632
vn 0.6433 0.6541 -0.3979
vn 0.7034 0.7107 -0.0062
vn 0.6354 -0.6312 -0.4449
vn 0.6960 -0.7125 -0.0894
vn -0.6433 0.6541 -0.3979
vn -0.7034 0.7107 -0.0062
vn -0.6354 -0.6312 -0.4449
vn -0.6960 -0.7125 -0.0894
vn -0.0000 -0.9972 0.0749
vn -0.0000 0.9849 -0.1734
vn -0.9978 -0.0359 -0.0555
vn 0.9978 -0.0359 -0.0557
vn 0.9294 0.2800 0.2403
vn 0.0091 0.6307 -0.7760
vn 0.0005 -0.2801 0.9600
vn -0.9965 0.0598 0.0576
vn -0.5853 0.8103 -0.0274
vn 0.0015 -0.4884 0.8726
vn -0.6888 -0.5872 0.4251
vn 0.9937 -0.0710 -0.0865
vn 0.6884 -0.5922 0.4188
vn -0.0004 0.8395 -0.5434
vn -0.9654 0.1637 0.2029
vn -0.0004 -0.9306 0.3661
vn 0.5696 0.8218 0.0152
vn 0.0020 0.8290 -0.5593
vn -0.9943 -0.0683 -0.0814
vn 0.9661 0.1628 0.2004
vn 0.7122 0.5012 -0.4915
vn 0.5132 0.0801 0.8545
vn 0.7160 0.6418 -0.2747
vn -0.7161 0.6420 -0.2737
vn 0.6878 -0.7138 0.1318
vn -0.7138 0.5074 -0.4828
vn -0.6881 -0.7134 0.1326
vn -0.5231 0.0548 0.8505
vn 0.7647 0.5494 0.3368
vn -0.0109 0.8535 -0.5209
vn -0.0189 0.1900 0.9816
vn -0.8758 0.4188 0.2398
vn -0.7206 0.3438 -0.6022
vn -0.6643 -0.1140 0.7387
vn 0.7070 0.5319 -0.4661
vn 0.5875 0.0381 0.8083
vn 0.7005 0.7070 -0.0975
vn 0.7866 0.0060 -0.6175
vn 0.6937 -0.6982 -0.1770
vn 0.9988 -0.0044 -0.0491
vn -0.6937 -0.6982 -0.1770
vn -0.7866 0.0060 -0.6175
vn -0.7005 0.7070 -0.0975
vn -0.9988 -0.0044 -0.0491
vn -0.0000 0.9999 0.0147
vn -0.0000 0.8061 -0.5917
vn -0.0000 -0.9947 -0.1024
vn -0.0000 -0.7697 -0.6384
vn 0.7081 0.7051 -0.0379
vn 0.6884 -0.7238 -0.0465
vn -0.7081 0.7051 -0.0379
vn -0.6884 -0.7238 -0.0465
vn 0.0021 -0.0768 0.9970
vn 0.9984 -0.0487 -0.0277
vn -0.0000 0.9995 -0.0306
vn -0.0000 -0.9991 -0.0433
vn -0.9988 -0.0182 -0.0454
vn -0.7996 0.4085 0.4401
vn 0.9964 -0.0476 -0.0700
vn -0.0000 0.0170 -0.9999
vn -0.9920 0.0793 0.0981
vn -0.0001 0.9348 -0.3552
vn -0.9965 -0.0471 -0.0687
vn -0.0001 -0.9762 0.2167
vn 0.0051 0.9738 -0.2271
vn -0.0003 -0.8034 0.5955
vn -0.9990 -0.0411 -0.0170
vn -0.0007 0.7318 -0.6815
vn -0.1075 0.8585 0.5014
vn -0.0129 0.5128 -0.8584
vn -0.0184 -0.1274 0.9917
vn 0.9166 0.3019 0.2620
vn 0.7678 0.4379 0.4677
vn 0.9906 0.0011 -0.1368
vn -0.9906 0.0011 -0.1368
vn -0.0000 0.9971 -0.0764
vn -0.0000 -0.9820 -0.1888
vn 0.9988 -0.0182 -0.0454
vn -0.6610 0.7189 -0.2148
vn 0.6176 0.7818 -0.0859
vn 0.5074 0.1020 0.8556
vn -0.5497 0.0194 0.8351
vn 0.0009 -0.0749 0.9972
vn -0.8820 0.3206 0.3454
vn 0.0029 0.9003 -0.4352
vn 0.7890 0.4229 0.4457
vt 0.681166 0.081977
vt 0.717069 0.068920
vt 0.707066 0.025385
vt 0.658419 0.032417
vt 0.956764 0.302867
vt 0.961682 0.253320
vt 0.916573 0.242436
vt 0.904581 0.281418
vt 0.956654 0.217145
vt 0.958070 0.190726
vt 0.926769 0.181601
vt 0.922289 0.208987
vt 0.749264 0.059248
vt 0.774789 0.052759
vt 0.770893 0.021627
vt 0.744022 0.026058
vt 0.573835 0.167367
vt 0.613439 0.203520
vt 0.674235 0.142548
vt 0.639053 0.105436
vt 0.710242 0.117881
vt 0.713328 0.177932
vt 0.744683 0.149507
vt 0.654774 0.241167
vt 0.404469 0.532550
vt 0.251263 0.710774
vt 0.275653 0.735868
vt 0.435750 0.564586
vt 0.302314 0.758542
vt 0.469864 0.593614
vt 0.151738 0.868209
vt 0.170079 0.885209
vt 0.133580 0.851018
vt 0.537646 0.646301
vt 0.356685 0.800328
vt 0.379938 0.825854
vt 0.566162 0.676977
vt 0.314870 0.442327
vt 0.179001 0.637836
vt 0.205988 0.659325
vt 0.347347 0.468620
vt 0.071887 0.803390
vt 0.095194 0.817453
vt 0.206089 0.921333
vt 0.221652 0.943685
vt 0.330016 0.778954
vt 0.504705 0.619729
vt 0.188434 0.902374
vt 0.879104 0.219119
vt 0.864327 0.252620
vt 0.842830 0.190485
vt 0.826336 0.219033
vt 0.889428 0.190131
vt 0.897932 0.164442
vt 0.869590 0.143742
vt 0.856634 0.166000
vt 0.548783 0.364601
vt 0.512243 0.327990
vt 0.376061 0.499613
vt 0.475988 0.293829
vt 0.084228 0.952751
vt 0.075923 0.949105
vt 0.064467 0.961322
vt 0.083244 0.962057
vt 0.077714 0.982728
vt 0.088219 0.972157
vt 0.062528 0.942636
vt 0.052131 0.938325
vt 0.042263 0.949485
vt 0.071750 0.941054
vt 0.941921 0.087436
vt 0.929049 0.078153
vt 0.916329 0.069090
vt 0.944835 0.021012
vt 0.940907 0.021616
vt 0.949245 0.023945
vt 0.587228 0.401915
vt 0.698368 0.281376
vt 0.627296 0.437584
vt 0.742422 0.321558
vt 0.666594 0.471476
vt 0.783839 0.360198
vt 0.703465 0.505331
vt 0.823499 0.397490
vt 0.736466 0.541981
vt 0.862698 0.436425
vt 0.532738 0.131655
vt 0.437306 0.263722
vt 0.805711 0.158542
vt 0.785656 0.182308
vt 0.768882 0.130920
vt 0.823970 0.139750
vt 0.840613 0.122624
vt 0.812699 0.102469
vt 0.792367 0.115352
vt 0.603675 0.060718
vt 0.930362 0.359864
vt 0.882246 0.326603
vt 0.841210 0.292918
vt 0.800768 0.255726
vt 0.756905 0.216086
vt 0.935103 0.018944
vt 0.939784 0.018708
vt 0.943223 0.013424
vt 0.934589 0.015301
vt 0.934472 0.006979
vt 0.930556 0.012635
vt 0.954282 0.019236
vt 0.903513 0.059463
vt 0.889457 0.050704
vt 0.868761 0.026662
vt 0.867112 0.011316
vt 0.956988 0.091343
vt 0.877836 0.039725
vt 0.790085 0.079683
vt 0.739701 0.101933
vt 0.767123 0.089051
vt 0.083091 0.919905
vt 0.069533 0.912448
vt 0.053386 0.905793
vt 0.115257 0.833827
vt 0.120614 0.968803
vt 0.112925 0.953116
vt 0.104604 0.940067
vt 0.094292 0.929511
vt 0.125179 0.988713
vt 0.033230 0.902527
vt 0.229068 0.684498
s 1
usemtl Cube.001
f 13/1/13 50/2/50 81/3/81 38/4/38
f 38/5/38 81/6/81 56/7/56 9/8/9
f 111/9/111 35/10/35 8/11/8 110/12/110
f 109/13/109 5/14/5 35/15/35 111/16/111
f 11/17/11 40/18/40 82/19/82 41/20/41
f 41/20/41 82/19/82 48/21/48 13/1/13
f 82/19/82 49/22/49 16/23/16 48/21/48
f 40/18/40 10/24/10 49/22/49 82/19/82
f 1/25/1 77/26/77 83/27/83 30/28/30
f 30/28/30 83/27/83 79/29/79 3/30/3
f 83/27/83 73/31/73 26/32/26 79/29/79
f 77/26/77 22/33/22 73/31/73 83/27/83
f 4/34/4 80/35/80 84/36/84 29/37/29
f 29/38/29 84/39/84 78/40/78 2/41/2
f 84/39/84 75/42/75 24/43/24 78/40/78
f 80/35/80 28/44/28 75/45/75 84/36/84
f 3/30/3 79/29/79 85/46/85 31/47/31
f 31/47/31 85/46/85 80/35/80 4/34/4
f 85/46/85 72/48/72 28/44/28 80/35/80
f 79/29/79 26/32/26 72/48/72 85/46/85
f 9/8/9 56/7/56 86/49/86 43/50/43
f 43/50/43 86/49/86 37/51/37 12/52/12
f 112/53/112 36/54/36 7/55/7 107/56/107
f 110/12/110 8/11/8 36/54/36 112/53/112
f 1/25/1 51/57/51 87/58/87 32/59/32
f 32/59/32 87/58/87 53/60/53 2/41/2
f 87/58/87 40/18/40 11/17/11 53/60/53
f 51/57/51 10/24/10 40/18/40 87/58/87
f 25/61/25 74/62/74 88/63/88 70/64/70
f 70/64/70 88/63/88 76/65/76 27/66/27
f 88/63/88 66/67/66 23/68/23 76/69/76
f 74/62/74 21/70/21 66/67/66 88/63/88
f 8/11/8 62/71/62 89/72/89 36/54/36
f 36/54/36 89/72/89 61/73/61 7/55/7
f 89/72/89 60/74/60 19/75/19 61/73/61
f 62/71/62 20/76/20 60/74/60 89/72/89
f 10/24/10 51/57/51 90/77/90 42/78/42
f 42/78/42 90/77/90 52/79/52 14/80/14
f 90/77/90 30/28/30 3/30/3 52/79/52
f 51/57/51 1/25/1 30/28/30 90/77/90
f 14/80/14 52/79/52 91/81/91 47/82/47
f 47/82/47 91/81/91 55/83/55 15/84/15
f 91/81/91 31/47/31 4/34/4 55/83/55
f 52/79/52 3/30/3 31/47/31 91/81/91
f 15/84/15 55/83/55 92/85/92 44/86/44
f 44/87/44 92/88/92 53/60/53 11/17/11
f 92/88/92 29/38/29 2/41/2 53/60/53
f 55/83/55 4/34/4 29/37/29 92/85/92
f 12/52/12 37/51/37 93/89/93 46/90/46
f 46/90/46 93/89/93 45/91/45 16/23/16
f 113/92/113 34/93/34 6/94/6 108/95/108
f 107/56/107 7/55/7 34/93/34 113/92/113
f 11/17/11 41/20/41 94/96/94 44/87/44
f 44/86/44 94/97/94 39/98/39 15/84/15
f 94/97/94 38/5/38 9/8/9 39/98/39
f 41/20/41 13/1/13 38/4/38 94/96/94
f 15/84/15 39/98/39 95/99/95 47/82/47
f 47/82/47 95/99/95 54/100/54 14/80/14
f 95/99/95 43/50/43 12/52/12 54/100/54
f 39/98/39 9/8/9 43/50/43 95/99/95
f 14/80/14 54/100/54 96/101/96 42/78/42
f 42/78/42 96/101/96 49/22/49 10/24/10
f 96/101/96 46/90/46 16/23/16 49/22/49
f 54/100/54 12/52/12 46/90/46 96/101/96
f 18/102/18 58/103/58 97/104/97 57/105/57
f 57/105/57 97/104/97 59/106/59 17/107/17
f 97/104/97 60/74/60 20/76/20 59/108/59
f 58/103/58 19/75/19 60/74/60 97/104/97
f 7/55/7 61/73/61 98/109/98 34/93/34
f 34/93/34 98/109/98 63/110/63 6/94/6
f 98/109/98 58/103/58 18/102/18 63/110/63
f 61/73/61 19/75/19 58/103/58 98/109/98
f 5/14/5 64/111/64 99/112/99 35/15/35
f 35/10/35 99/113/99 62/71/62 8/11/8
f 99/113/99 59/108/59 20/76/20 62/71/62
f 64/111/64 17/107/17 59/106/59 99/112/99
f 6/94/6 63/110/63 100/114/100 33/115/33
f 33/115/33 100/114/100 64/111/64 5/14/5
f 100/114/100 57/105/57 17/107/17 64/111/64
f 63/110/63 18/102/18 57/105/57 100/114/100
f 13/1/13 48/21/48 101/116/101 50/2/50
f 109/13/109 114/117/114 33/115/33 5/14/5
f 114/117/114 108/95/108 6/94/6 33/115/33
f 48/21/48 16/23/16 45/91/45 101/116/101
f 21/70/21 65/118/65 102/119/102 66/67/66
f 66/67/66 102/119/102 67/120/67 23/68/23
f 102/119/102 68/121/68 24/43/24 67/120/67
f 65/118/65 22/33/22 68/121/68 102/119/102
f 27/66/27 69/122/69 103/123/103 70/64/70
f 70/64/70 103/123/103 71/124/71 25/61/25
f 103/123/103 72/48/72 26/32/26 71/124/71
f 69/122/69 28/44/28 72/48/72 103/123/103
f 22/33/22 65/118/65 104/125/104 73/31/73
f 73/31/73 104/125/104 71/124/71 26/32/26
f 104/125/104 74/62/74 25/61/25 71/124/71
f 65/118/65 21/70/21 74/62/74 104/125/104
f 28/44/28 69/122/69 105/126/105 75/45/75
f 75/42/75 105/127/105 67/120/67 24/43/24
f 105/127/105 76/69/76 23/68/23 67/120/67
f 69/122/69 27/66/27 76/65/76 105/126/105
f 22/33/22 77/26/77 106/128/106 68/121/68
f 68/121/68 106/128/106 78/40/78 24/43/24
f 106/128/106 32/59/32 2/41/2 78/40/78
f 77/26/77 1/25/1 32/59/32 106/128/106
f 101/116/101 45/91/45 108/95/108 114/117/114
f 50/2/50 101/116/101 114/117/114 109/13/109
f 37/51/37 107/56/107 113/92/113 93/89/93
f 93/89/93 113/92/113 108/95/108 45/91/45
f 56/7/56 110/12/110 112/53/112 86/49/86
f 86/49/86 112/53/112 107/56/107 37/51/37
f 50/2/50 109/13/109 111/16/111 81/3/81
f 81/6/81 111/9/111 110/12/110 56/7/56
