# Blender 4.0.1
# www.blender.org
mtllib fire trail object 2.mtl
o Plane
v -0.795430 0.000000 0.795430
v 0.795430 0.000000 0.795430
v -0.795430 0.000000 -0.795430
v 0.795430 0.000000 -0.795430
v -0.854167 0.000000 -0.364583
v -1.085238 0.000000 0.000000
v -0.854167 0.000000 0.364583
v -0.364583 0.000000 0.854167
v 0.000000 0.000000 1.085238
v 0.364583 0.000000 0.854167
v 0.854167 0.000000 0.364583
v 1.085238 0.000000 0.000000
v 0.854167 0.000000 -0.364583
v 0.364583 0.000000 -0.854167
v 0.000000 0.000000 -1.085238
v -0.364583 0.000000 -0.854167
v -0.430556 0.201265 0.430556
v 0.000000 0.000000 0.458333
v 0.430556 0.201265 0.430556
v -0.458333 0.000000 0.000000
v 0.000000 0.201265 -0.000000
v 0.458333 0.000000 0.000000
v -0.430556 0.201265 -0.430556
v 0.000000 0.000000 -0.458333
v 0.430556 0.201265 -0.430556
v -0.229167 0.000000 -0.229167
v 0.239195 0.012531 -0.239195
v 0.248641 0.012531 0.248641
v -0.248581 0.012531 0.248581
vn -0.2813 0.8786 0.3858
vn 0.3859 0.8787 0.2811
vn -0.3730 0.8495 -0.3730
vn -0.3998 0.8202 0.4092
vn -0.2569 0.9316 0.2569
vn 0.1882 0.9667 0.1734
vn -0.1882 0.9667 0.1734
vn 0.2569 0.9316 0.2569
vn 0.1734 0.9667 -0.1882
vn 0.1734 0.9667 0.1882
vn 0.2569 0.9316 -0.2569
vn -0.1882 0.9667 -0.1734
vn 0.1882 0.9667 -0.1734
vn -0.2569 0.9316 -0.2569
vn -0.1734 0.9667 0.1882
vn -0.1734 0.9667 -0.1882
vn 0.4081 0.8167 0.4081
vn 0.3051 0.8720 -0.3829
vn -0.4092 0.8202 0.3998
vn 0.3829 0.8720 -0.3051
vn -0.4047 0.8061 -0.4317
vn -0.4317 0.8061 -0.4047
vn 0.2811 0.8787 0.3859
vn 0.4315 0.8062 -0.4047
vn -0.3858 0.8786 0.2813
vn 0.4047 0.8062 -0.4315
vt 0.500000 0.250000
vt 0.500000 0.500000
vt 0.355663 0.355663
vt 0.750000 0.500000
vt 0.644373 0.355628
vt 0.500000 0.750000
vt 0.375000 0.625000
vt 0.750000 0.750000
vt 0.638887 0.638887
vt 0.000000 0.000000
vt 0.250000 0.000000
vt 0.250000 0.250000
vt 0.000000 0.250000
vt 0.500000 0.000000
vt 0.750000 0.000000
vt 0.750000 0.250000
vt 1.000000 0.000000
vt 1.000000 0.250000
vt 1.000000 0.500000
vt 1.000000 0.750000
vt 1.000000 1.000000
vt 0.750000 1.000000
vt 0.500000 1.000000
vt 0.250000 0.750000
vt 0.250000 1.000000
vt 0.000000 0.750000
vt 0.000000 1.000000
vt 0.000000 0.500000
vt 0.250000 0.500000
s 0
f 18/1/1 21/2/1 29/3/1
f 22/4/2 21/2/2 28/5/2
f 21/2/3 24/6/3 26/7/3
f 22/4/4 25/8/4 27/9/4
f 1/10/5 8/11/5 17/12/5 7/13/5
f 8/11/6 9/14/6 18/1/6 17/12/6
f 9/14/7 10/15/7 19/16/7 18/1/7
f 10/15/8 2/17/8 11/18/8 19/16/8
f 19/16/9 11/18/9 12/19/9 22/4/9
f 22/4/10 12/19/10 13/20/10 25/8/10
f 25/8/11 13/20/11 4/21/11 14/22/11
f 24/6/12 25/8/12 14/22/12 15/23/12
f 23/24/13 24/6/13 15/23/13 16/25/13
f 5/26/14 23/24/14 16/25/14 3/27/14
f 6/28/15 20/29/15 23/24/15 5/26/15
f 7/13/16 17/12/16 20/29/16 6/28/16
f 23/24/17 20/29/17 26/7/17
f 24/6/17 23/24/17 26/7/17
f 20/29/3 21/2/3 26/7/3
f 24/6/18 21/2/18 27/9/18
f 25/8/19 24/6/19 27/9/19
f 21/2/20 22/4/20 27/9/20
f 18/1/21 19/16/21 28/5/21
f 19/16/22 22/4/22 28/5/22
f 21/2/23 18/1/23 28/5/23
f 20/29/24 17/12/24 29/3/24
f 21/2/25 20/29/25 29/3/25
f 17/12/26 18/1/26 29/3/26
