# Blender 4.0.1
# www.blender.org
mtllib ice mist rect.mtl
o Plane
v -1.098802 -0.064858 1.098802
v 1.098802 -0.064858 1.098802
v -1.098802 -0.064858 -1.098802
v 1.098802 -0.064858 -1.098802
v -0.818214 0.000000 -0.818214
v -0.818214 0.000000 0.818214
v 0.818214 0.000000 0.818214
v 0.818214 0.000000 -0.818214
v 0.000000 0.000000 -0.818214
v 0.000000 -0.064858 -1.322489
v 0.818214 0.000000 0.000000
v 1.322489 -0.064858 0.000000
v 0.000000 0.000000 0.818214
v 0.000000 -0.064858 1.322489
v -0.818214 0.000000 0.000000
v -1.322489 -0.064858 0.000000
vn -0.1567 0.9875 -0.0183
vn -0.0183 0.9875 0.1567
vn 0.1567 0.9875 0.0183
vn 0.0183 0.9875 -0.1567
vn -0.0183 0.9875 -0.1567
vn 0.1567 0.9875 -0.0183
vn 0.0183 0.9875 0.1567
vn -0.1567 0.9875 0.0183
vt 0.090893 0.500000
vt 0.090893 0.909107
vt 0.000000 1.000000
vt 0.000000 0.500000
vt 0.500000 0.090893
vt 0.090893 0.090893
vt 0.000000 0.000000
vt 0.500000 0.000000
vt 0.909107 0.500000
vt 0.909107 0.090893
vt 1.000000 0.000000
vt 1.000000 0.500000
vt 0.500000 0.909107
vt 0.909107 0.909107
vt 1.000000 1.000000
vt 0.500000 1.000000
s 0
f 15/1/1 5/2/1 3/3/1 16/4/1
f 13/5/2 6/6/2 1/7/2 14/8/2
f 11/9/3 7/10/3 2/11/3 12/12/3
f 9/13/4 8/14/4 4/15/4 10/16/4
f 5/2/5 9/13/5 10/16/5 3/3/5
f 8/14/6 11/9/6 12/12/6 4/15/6
f 7/10/7 13/5/7 14/8/7 2/11/7
f 6/6/8 15/1/8 16/4/8 1/7/8
