# Blender 4.0.1
# www.blender.org
mtllib lightning bolt 3.mtl
o BezierCurve
v 0.317440 0.004184 0.006924
v -0.387223 0.004184 -0.290247
v 0.365610 0.100744 -0.061335
v -0.391940 0.017389 -0.266640
v 0.381515 0.211801 -0.107300
v -0.397053 0.100689 -0.120182
v 0.383217 0.344432 -0.140927
v -0.344411 0.232090 0.113606
v 0.380838 0.498680 -0.161824
v -0.171794 0.396640 0.366667
v 0.383343 0.668642 -0.175274
v 0.135283 0.585328 0.542308
v 0.390803 0.846736 -0.191456
v 0.517348 0.790822 0.550962
v 0.393810 1.024415 -0.214547
v 0.861765 1.006760 0.364916
v 0.383458 1.192101 -0.237374
v 1.062572 1.227804 0.038690
v 0.360138 1.338818 -0.248015
v 1.072079 1.450020 -0.321690
v 0.332360 1.452046 -0.240887
v 0.910987 1.671014 -0.607544
v 0.309711 1.520247 -0.223259
v 0.653359 1.887412 -0.735781
v 0.278460 1.576310 -0.184491
v 0.453984 2.051412 -0.691758
v 0.225041 1.700025 -0.087407
v 0.368010 2.144773 -0.626035
v 0.209374 1.802682 -0.009123
v 0.321423 2.217250 -0.576880
v 0.214670 1.924632 0.080075
v 0.282150 2.310160 -0.514487
v 0.242549 2.065348 0.173076
v 0.258747 2.420528 -0.444673
v 0.288104 2.223845 0.262294
v 0.253746 2.545836 -0.374521
v 0.340248 2.398995 0.342967
v 0.264230 2.683710 -0.310016
v 0.383961 2.589630 0.414336
v 0.283673 2.831814 -0.254481
v 0.403049 2.794573 0.477803
v 0.304203 2.987823 -0.208698
v 0.382691 3.012610 0.532651
v 0.318541 3.149448 -0.172482
v 0.312371 3.242405 0.571121
v 0.321654 3.314522 -0.146787
v 0.187672 3.487098 0.575090
v 0.312580 3.476403 -0.135003
v 0.032243 3.738557 0.513526
v 0.295318 3.623900 -0.144870
v -0.102730 3.977708 0.378493
v 0.278264 3.762084 -0.180150
v -0.181026 4.197248 0.193310
v 0.273047 3.902726 -0.240398
v -0.185116 4.398839 -0.009309
v 0.296739 4.048641 -0.319781
v -0.113075 4.585740 -0.192784
v 0.368845 4.201038 -0.400021
v 0.020369 4.761480 -0.321483
v 0.501519 4.360861 -0.444448
v 0.182717 4.929145 -0.368691
v 0.680972 4.529497 -0.399226
v 0.328186 5.091143 -0.327980
v 0.844866 4.709007 -0.212973
v 0.411808 5.249277 -0.221478
v 0.875366 4.902061 0.115680
v 0.408939 5.405051 -0.095883
v 0.644163 5.111627 0.475519
v 0.327780 5.560302 -0.004158
v 0.133561 5.340341 0.628699
v 0.201921 5.722658 0.015841
v -0.423819 5.585044 0.352729
v 0.082026 5.893457 -0.049965
v -0.649445 5.830173 -0.265535
v 0.022187 6.056776 -0.169281
v -0.415537 6.059126 -0.854783
v 0.032474 6.210440 -0.291829
v 0.104247 6.273761 -1.147022
v 0.092286 6.355299 -0.382849
v 0.644195 6.472919 -1.080870
v 0.171701 6.491975 -0.430455
v 1.011946 6.655663 -0.767246
v 0.246297 6.620948 -0.441254
v 1.148999 6.821200 -0.370903
v 0.304084 6.742745 -0.430548
v 1.098153 6.968693 -0.018921
v 0.345106 6.858259 -0.412892
v 0.942006 7.096936 0.230101
v 0.376850 6.969326 -0.396281
v 0.757405 7.203778 0.373878
v 0.409103 7.079917 -0.380057
v 0.598428 7.284939 0.440034
v 0.496490 7.334316 -0.290402
v 0.497685 7.334316 0.462349
vn 0.3117 -0.4613 -0.8307
vn 0.2322 -0.0661 -0.9704
vn 0.1952 0.0724 -0.9781
vn -0.0573 0.5355 -0.8426
vn -0.0924 0.5557 -0.8263
vn -0.3315 0.6493 -0.6845
vn -0.3605 0.6552 -0.6639
vn -0.5551 0.6916 -0.4621
vn -0.5748 0.6946 -0.4326
vn -0.6803 0.7140 -0.1655
vn -0.6860 0.7155 -0.1323
vn -0.6723 0.7238 0.1553
vn -0.6648 0.7241 0.1837
vn -0.5358 0.7226 0.4368
vn -0.5216 0.7221 0.4545
vn -0.3096 0.7107 0.6317
vn -0.2971 0.7099 0.6386
vn -0.0490 0.6864 0.7255
vn -0.0429 0.6858 0.7266
vn 0.2024 0.6372 0.7436
vn 0.2029 0.6371 0.7436
vn 0.4855 0.5122 0.7085
vn 0.4838 0.5133 0.7089
vn 0.7629 0.3165 0.5637
vn 0.7590 0.3198 0.5671
vn -0.8987 -0.3450 0.2708
vn -0.9870 -0.0919 0.1315
vn -0.8135 -0.4731 0.3381
vn 0.9086 0.1665 0.3830
vn 0.9674 0.0740 0.2422
vn 0.9680 0.0728 0.2402
vn 0.9099 0.1648 0.3807
vn 0.9940 -0.0055 0.1094
vn 0.9942 -0.0067 0.1073
vn 0.9972 -0.0735 -0.0135
vn 0.9971 -0.0742 -0.0149
vn 0.9875 -0.1159 -0.1072
vn 0.9874 -0.1161 -0.1077
vn 0.9794 -0.1226 -0.1607
vn 0.9793 -0.1226 -0.1608
vn 0.9816 -0.0872 -0.1701
vn 0.9815 -0.0873 -0.1701
vn 0.9908 -0.0084 -0.1351
vn 0.9908 -0.0087 -0.1353
vn 0.9926 0.1059 -0.0600
vn 0.9926 0.1058 -0.0601
vn 0.9700 0.2390 0.0442
vn 0.9699 0.2395 0.0447
vn 0.9183 0.3638 0.1564
vn 0.9175 0.3651 0.1576
vn 0.8567 0.4460 0.2591
vn 0.8556 0.4470 0.2611
vn 0.8055 0.4697 0.3613
vn 0.8044 0.4696 0.3638
vn 0.7557 0.4402 0.4848
vn 0.7549 0.4393 0.4870
vn 0.6771 0.3590 0.6424
vn 0.6775 0.3594 0.6418
vn 0.5238 0.2191 0.8232
vn 0.5295 0.2239 0.8182
vn 0.2512 0.0213 0.9677
vn 0.2668 0.0316 0.9632
vn -0.1270 -0.2088 0.9697
vn -0.1072 -0.1975 0.9744
vn -0.5001 -0.4254 0.7543
vn -0.4892 -0.4190 0.7649
vn -0.7201 -0.5950 0.3570
vn -0.7184 -0.5929 0.3638
vn -0.6955 -0.7128 -0.0904
vn -0.6984 -0.7110 -0.0823
vn -0.4429 -0.7885 -0.4268
vn -0.4645 -0.7844 -0.4111
vn -0.0832 -0.8327 -0.5474
vn -0.1362 -0.8273 -0.5450
vn 0.2362 -0.8567 -0.4585
vn 0.1731 -0.8515 -0.4949
vn 0.4313 -0.8678 -0.2470
vn 0.3909 -0.8645 -0.3159
vn 0.4955 -0.8686 0.0025
vn 0.4895 -0.8684 -0.0790
vn 0.4498 -0.8605 0.2390
vn 0.4777 -0.8633 0.1628
vn 0.3173 -0.8443 0.4318
vn 0.3709 -0.8497 0.3747
vn 0.1226 -0.8200 0.5591
vn 0.1893 -0.8277 0.5283
vn -0.1063 -0.7867 0.6082
vn -0.0392 -0.7964 0.6035
vn -0.3433 -0.7407 0.5776
vn -0.2841 -0.7532 0.5933
vn -0.5753 -0.6663 0.4745
vn -0.5240 -0.6865 0.5041
vt 0.000000 1.000000
vt 0.020833 1.000000
vt 0.020833 0.000000
vt 0.000000 0.000000
vt 0.041667 1.000000
vt 0.041667 0.000000
vt 0.062500 1.000000
vt 0.062500 0.000000
vt 0.083333 1.000000
vt 0.083333 0.000000
vt 0.104167 1.000000
vt 0.104167 0.000000
vt 0.125000 1.000000
vt 0.125000 0.000000
vt 0.145833 1.000000
vt 0.145833 0.000000
vt 0.166667 1.000000
vt 0.166667 0.000000
vt 0.187500 1.000000
vt 0.187500 0.000000
vt 0.208333 1.000000
vt 0.208333 0.000000
vt 0.229167 1.000000
vt 0.229167 0.000000
vt 0.250000 1.000000
vt 0.250000 0.000000
vt 0.958333 1.000000
vt 1.000000 1.000000
vt 1.000000 0.000000
vt 0.958333 0.000000
vt 0.291667 1.000000
vt 0.312500 1.000000
vt 0.312500 0.000000
vt 0.291667 0.000000
vt 0.333333 1.000000
vt 0.333333 0.000000
vt 0.354167 1.000000
vt 0.354167 0.000000
vt 0.375000 1.000000
vt 0.375000 0.000000
vt 0.395833 1.000000
vt 0.395833 0.000000
vt 0.416667 1.000000
vt 0.416667 0.000000
vt 0.437500 1.000000
vt 0.437500 0.000000
vt 0.458333 1.000000
vt 0.458333 0.000000
vt 0.479167 1.000000
vt 0.479167 0.000000
vt 0.500000 1.000000
vt 0.500000 0.000000
vt 0.520833 1.000000
vt 0.520833 0.000000
vt 0.541667 1.000000
vt 0.541667 0.000000
vt 0.562500 1.000000
vt 0.562500 0.000000
vt 0.583333 1.000000
vt 0.583333 0.000000
vt 0.604167 1.000000
vt 0.604167 0.000000
vt 0.625000 1.000000
vt 0.625000 0.000000
vt 0.645833 1.000000
vt 0.645833 0.000000
vt 0.666667 1.000000
vt 0.666667 0.000000
vt 0.687500 1.000000
vt 0.687500 0.000000
vt 0.708333 1.000000
vt 0.708333 0.000000
vt 0.729167 1.000000
vt 0.729167 0.000000
vt 0.750000 1.000000
vt 0.750000 0.000000
vt 0.770833 1.000000
vt 0.770833 0.000000
vt 0.791667 1.000000
vt 0.791667 0.000000
vt 0.812500 1.000000
vt 0.812500 0.000000
vt 0.833333 1.000000
vt 0.833333 0.000000
vt 0.854167 1.000000
vt 0.854167 0.000000
vt 0.875000 1.000000
vt 0.875000 0.000000
vt 0.895833 1.000000
vt 0.895833 0.000000
vt 0.916667 1.000000
vt 0.916667 0.000000
vt 0.937500 1.000000
vt 0.937500 0.000000
s 1
usemtl Material
f 2/1/1 4/2/2 3/3/3 1/4/1
f 4/2/2 6/5/4 5/6/5 3/3/3
f 6/5/4 8/7/6 7/8/7 5/6/5
f 8/7/6 10/9/8 9/10/9 7/8/7
f 10/9/8 12/11/10 11/12/11 9/10/9
f 12/11/10 14/13/12 13/14/13 11/12/11
f 14/13/12 16/15/14 15/16/15 13/14/13
f 16/15/14 18/17/16 17/18/17 15/16/15
f 18/17/16 20/19/18 19/20/19 17/18/17
f 20/19/18 22/21/20 21/22/21 19/20/19
f 22/21/20 24/23/22 23/24/23 21/22/21
f 24/23/22 26/25/24 25/26/25 23/24/23
f 92/27/26 94/28/27 93/29/27 91/30/28
f 28/31/29 30/32/30 29/33/31 27/34/32
f 30/32/30 32/35/33 31/36/34 29/33/31
f 32/35/33 34/37/35 33/38/36 31/36/34
f 34/37/35 36/39/37 35/40/38 33/38/36
f 36/39/37 38/41/39 37/42/40 35/40/38
f 38/41/39 40/43/41 39/44/42 37/42/40
f 40/43/41 42/45/43 41/46/44 39/44/42
f 42/45/43 44/47/45 43/48/46 41/46/44
f 44/47/45 46/49/47 45/50/48 43/48/46
f 46/49/47 48/51/49 47/52/50 45/50/48
f 48/51/49 50/53/51 49/54/52 47/52/50
f 50/53/51 52/55/53 51/56/54 49/54/52
f 52/55/53 54/57/55 53/58/56 51/56/54
f 54/57/55 56/59/57 55/60/58 53/58/56
f 56/59/57 58/61/59 57/62/60 55/60/58
f 58/61/59 60/63/61 59/64/62 57/62/60
f 60/63/61 62/65/63 61/66/64 59/64/62
f 62/65/63 64/67/65 63/68/66 61/66/64
f 64/67/65 66/69/67 65/70/68 63/68/66
f 66/69/67 68/71/69 67/72/70 65/70/68
f 68/71/69 70/73/71 69/74/72 67/72/70
f 70/73/71 72/75/73 71/76/74 69/74/72
f 72/75/73 74/77/75 73/78/76 71/76/74
f 74/77/75 76/79/77 75/80/78 73/78/76
f 76/79/77 78/81/79 77/82/80 75/80/78
f 78/81/79 80/83/81 79/84/82 77/82/80
f 80/83/81 82/85/83 81/86/84 79/84/82
f 82/85/83 84/87/85 83/88/86 81/86/84
f 84/87/85 86/89/87 85/90/88 83/88/86
f 86/89/87 88/91/89 87/92/90 85/90/88
f 88/91/89 90/93/91 89/94/92 87/92/90
f 90/93/91 92/27/26 91/30/28 89/94/92
f 26/25/24 28/31/29 27/34/32 25/26/25
