# Blender 4.0.1
# www.blender.org
mtllib obelisk thunder object.mtl
o Cylinder
v 0.000000 0.120195 -1.000000
v 0.000000 0.699728 -1.000000
v 0.707107 0.120195 -0.707107
v 0.707107 0.699728 -0.707107
v 1.000000 0.120195 0.000000
v 1.000000 0.699728 0.000000
v 0.707107 0.120195 0.707107
v 0.707107 0.699728 0.707107
v 0.000000 0.120195 1.000000
v 0.000000 0.699728 1.000000
v -0.707107 0.120195 0.707107
v -0.707107 0.699728 0.707107
v -1.000000 0.120195 0.000000
v -1.000000 0.699728 0.000000
v -0.707107 0.120195 -0.707107
v -0.707107 0.699728 -0.707107
vn 0.3827 -0.0000 -0.9239
vn 0.9239 -0.0000 -0.3827
vn 0.9239 -0.0000 0.3827
vn 0.3827 -0.0000 0.9239
vn -0.3827 -0.0000 0.9239
vn -0.9239 -0.0000 0.3827
vn -0.9239 -0.0000 -0.3827
vn -0.3827 -0.0000 -0.9239
vt 1.000000 0.250000
vt 1.000000 0.750000
vt 0.875000 0.750000
vt 0.875000 0.250000
vt 0.750000 0.750000
vt 0.750000 0.250000
vt 0.625000 0.750000
vt 0.625000 0.250000
vt 0.500000 0.750000
vt 0.500000 0.250000
vt 0.375000 0.750000
vt 0.375000 0.250000
vt 0.250000 0.750000
vt 0.250000 0.250000
vt 0.125000 0.750000
vt 0.125000 0.250000
vt 0.000000 0.750000
vt 0.000000 0.250000
s 0
f 1/1/1 2/2/1 4/3/1 3/4/1
f 3/4/2 4/3/2 6/5/2 5/6/2
f 5/6/3 6/5/3 8/7/3 7/8/3
f 7/8/4 8/7/4 10/9/4 9/10/4
f 9/10/5 10/9/5 12/11/5 11/12/5
f 11/12/6 12/11/6 14/13/6 13/14/6
f 13/14/7 14/13/7 16/15/7 15/16/7
f 15/16/8 16/15/8 2/17/8 1/18/8
